<?xml version="1.0" encoding="UTF-8" standalone="no"?>
<!-- Created with Inkscape (http://www.inkscape.org/) -->

<svg
   version="1.1"
   id="svg286"
   width="1810"
   height="512.66669"
   viewBox="0 0 1810 512.66669"
   sodipodi:docname="showbench.svg"
   inkscape:version="1.1.2 (b8e25be8, 2022-02-05)"
   xmlns:inkscape="http://www.inkscape.org/namespaces/inkscape"
   xmlns:sodipodi="http://sodipodi.sourceforge.net/DTD/sodipodi-0.dtd"
   xmlns="http://www.w3.org/2000/svg"
   xmlns:svg="http://www.w3.org/2000/svg">
  <defs
     id="defs290" />
  <sodipodi:namedview
     id="namedview288"
     pagecolor="#ffffff"
     bordercolor="#111111"
     borderopacity="1"
     inkscape:pageshadow="0"
     inkscape:pageopacity="0"
     inkscape:pagecheckerboard="1"
     showgrid="false"
     inkscape:zoom="0.6281768"
     inkscape:cx="493.49164"
     inkscape:cy="256.29727"
     inkscape:window-width="1920"
     inkscape:window-height="1028"
     inkscape:window-x="0"
     inkscape:window-y="52"
     inkscape:window-maximized="0"
     inkscape:current-layer="g292" />
  <g
     inkscape:groupmode="layer"
     inkscape:label="Image"
     id="g292">
    <path
       style="fill:#000000;stroke-width:0.666667"
       d="m 1625.5023,484.9458 c -1.9238,-1.29939 -3.6451,-3.01876 -3.8252,-3.82082 -0.5855,-2.60852 -1.0572,-16.19322 -1.7056,-49.12496 -0.3502,-17.78333 -0.9353,-46.73334 -1.3003,-64.33334 -0.365,-17.6 -0.8248,-39.99248 -1.0217,-49.76107 -0.3557,-17.64036 -0.3682,-17.76376 -1.8372,-18.15756 -1.904,-0.51044 -133.6776,-0.52208 -135.5788,-0.012 -1.536,0.4121 -1.8835,1.47536 -2.9185,8.93061 -0.3309,2.38333 -0.9227,6.28333 -1.315,8.66667 -0.3923,2.38333 -1.0085,6.43333 -1.3691,9 -1.1618,8.26909 -1.9015,13.23612 -2.6309,17.66667 -0.9045,5.49424 -1.9282,12.70616 -2.4131,17 -0.2071,1.83333 -0.6488,3.61833 -0.9817,3.96666 -0.3329,0.34834 -0.6052,1.56334 -0.6052,2.7 0,1.13667 -0.36,2.42667 -0.8,2.86667 -0.5859,0.58594 -6.0445,0.8 -20.4,0.8 h -19.6 l -2.3337,-2.33376 c -2.5658,-2.56581 -2.5398,-2.19456 -0.8676,-12.33291 0.393,-2.38333 1.0042,-6.35833 1.358,-8.83333 0.3538,-2.475 0.9433,-6.6 1.31,-9.16667 0.3666,-2.56666 0.961,-6.69166 1.3209,-9.16667 0.3599,-2.475 0.9655,-6.75 1.3457,-9.5 0.3803,-2.75 0.9805,-6.95 1.3338,-9.33333 0.3533,-2.38333 0.8264,-5.73935 1.0514,-7.45783 l 0.409,-3.12449 -2.2304,-0.40379 c -1.2268,-0.22208 -22.0741,-0.31606 -46.3274,-0.20884 -40.9,0.18082 -44.1904,0.27953 -45.3858,1.36162 -1.1461,1.03739 -2.9293,1.16666 -16.0932,1.16666 -12.9766,0 -15.024,-0.14402 -16.5846,-1.16666 -1.6731,-1.09638 -9.5145,-1.1973 -130.1432,-1.67498 -70.5996,-0.27957 -153.5629,-0.6658 -184.3629,-0.85828 -30.8,-0.19248 -56.975,-0.17515 -58.16667,0.0385 l -2.16666,0.38849 v 92.16979 c 0,70.79873 -0.18547,92.35529 -0.8,92.9698 -1.23347,1.23344 -52.08747,1.14051 -53.11454,-0.0971 -0.53226,-0.64128 -0.79313,-16.94108 -0.915,-57.16667 l -0.17046,-56.26962 -3.11354,-0.20103 c -1.71246,-0.11056 -3.43466,-0.58792 -3.82713,-1.0608 -0.48093,-0.57952 -0.76993,-11.81452 -0.88647,-34.46564 L 867.66667,301.00001 866,300.77256 c -0.91667,-0.12509 -2.2232,-0.72509 -2.90333,-1.33333 -1.14614,-1.02491 -16.0172,-1.10588 -203.0967,-1.10588 -191.3121,0 -201.92738,0.0609 -203.14916,1.16666 -1.15024,1.04098 -2.96571,1.16667 -16.85081,1.16667 -13.88527,0 -15.70051,-0.12568 -16.85037,-1.16667 -1.18574,-1.07346 -4.01261,-1.18239 -35.38583,-1.36354 -18.75342,-0.10829 -35.07213,-0.0197 -36.2638,0.19687 -2.17865,0.39593 -2.90533,1.97234 -1.55193,3.36667 0.33811,0.34834 0.78063,2.73334 0.98339,5.3 0.39647,5.01892 1.29289,13.34464 2.38665,22.16667 0.37504,3.025 0.98874,7.975 1.36378,11 0.96197,7.75902 1.90436,16.11803 2.37402,21.05758 0.35928,3.77854 0.24216,4.39403 -1.11,5.83334 l -1.51166,1.60908 h -19.75046 c -20.75368,0 -21.35046,-0.0838 -21.35046,-3 0,-0.77 -0.27663,-1.685 -0.61474,-2.03333 -0.3381,-0.34833 -0.77744,-2.73333 -0.9763,-5.3 -0.19886,-2.56667 -0.67222,-7.14167 -1.05192,-10.16667 -0.3797,-3.025 -0.982,-7.825 -1.33844,-10.66666 -0.35643,-2.84167 -0.9648,-7.41667 -1.35193,-10.16667 -0.86833,-6.16822 -1.81609,-13.69699 -2.58067,-20.5 -0.74364,-6.61674 -1.21731,-7.95613 -2.98096,-8.42926 -1.9092,-0.51218 -105.67956,-0.49992 -107.59202,0.0127 l -1.48698,0.39858 -0.34095,30.42565 c -0.18753,16.73411 -0.64484,45.27565 -1.01625,63.42565 -0.3714,18.15001 -0.8308,44.69086 -1.02086,58.97967 l -0.34559,25.97968 -1.8005,1.87932 c -3.69158,3.85315 -3.48651,3.82799 -31.18935,3.82799 -21.12354,0 -25.61616,-0.16092 -26.2633,-0.94067 -0.56179,-0.67693 -0.67438,-3.99473 -0.40153,-11.83334 0.20853,-5.99096 0.67264,-23.04266 1.03136,-37.89266 0.35871,-14.85 0.95313,-39.15001 1.32093,-54.00001 1.53624,-62.02613 1.72006,-81.29903 0.77881,-81.65975 -0.48832,-0.18714 -24.20332,-0.34025 -52.7,-0.34025 -39.409442,0 -52.003643,-0.1915 -52.61214,-0.8 -0.44,-0.44 -0.8,-1.99943 -0.8,-3.4654 0,-1.46597 -0.295309,-5.08097 -0.656241,-8.03333 -2.405599,-19.67737 -2.383685,-19.12008 -0.802207,-20.40068 0.797163,-0.6455 3.176427,-1.67198 5.287251,-2.28107 10.077483,-2.90789 13.509056,-3.89343 17.671197,-5.07518 2.475,-0.70272 6.6,-1.87768 9.166667,-2.61101 15.789513,-4.51129 18.35708,-5.20611 20.26188,-5.48314 0.694033,-0.10094 1.519033,-0.70853 1.833333,-1.35019 0.3143,-0.64167 0.804187,-1.65209 1.088633,-2.24538 0.557627,-1.16308 9.838354,-4.24957 22.816157,-7.58796 1.65,-0.42444 5.025,-1.34808 7.5,-2.05252 9.68092,-2.75542 14.25002,-4.06931 16.214,-4.66247 1.12603,-0.34009 3.84593,-0.61834 6.04422,-0.61834 4.81428,0 10.39599,-0.90046 16.24178,-2.62017 2.38333,-0.70113 5.53333,-1.57506 7,-1.94206 1.46666,-0.367 4.31666,-1.17486 6.33333,-1.79524 2.01667,-0.62038 4.86667,-1.44055 6.33333,-1.8226 3.70492,-0.96506 30.58012,-1.7541 80.33334,-2.35852 23.28333,-0.28285 42.40421,-0.57738 42.49084,-0.65451 0.0866,-0.0771 0.30584,-20.46523 0.48715,-45.3069 0.1813,-24.84167 0.4947,-53.30426 0.69645,-63.25019 l 0.3668,-18.083522 -1.52062,-0.407374 c -0.83634,-0.22406 -23.90889,-0.41148 -51.27233,-0.416487 -38.99109,-0.0071 -49.89646,-0.18934 -50.42099,-0.842433 -0.87227,-1.086053 -1.38782,-4.448193 -2.1212,-13.833334 -0.3295,-4.216667 -0.79904,-8.583474 -1.0434,-9.704007 -0.83025,-3.807065 1.15474,-4.384635 17.3373,-5.044619 38.37238,-1.564966 45.71812,-1.96014 49.66666,-2.671887 4.02223,-0.725028 197.70279,-1.067612 1126.66667,-1.992862 87.2142,-0.08687 104.9581,0.241276 106.9023,1.976968 1.0733,0.958188 4.2256,1.16904 24,1.605309 25.9563,0.572658 52.3684,1.582781 57.7644,2.209186 5.2407,0.60838 5.5646,1.027976 5.0952,6.601832 -0.2171,2.577707 -0.5652,6.936747 -0.7736,9.686747 -0.3901,5.147194 -1.4194,9.702274 -2.5234,11.166667 -0.4898,0.64986 -9.2333,0.83534 -39.7132,0.842433 -21.4968,0.0053 -39.7683,0.19216 -40.6034,0.415894 l -1.5184,0.406787 0.3605,20.750782 c 0.1983,11.41293 0.5087,38.15077 0.6899,59.41744 0.3002,35.2393 0.4288,38.74054 1.452,39.5 1.5524,1.1524 66.0095,1.18839 73.9432,0.0413 4.2301,-0.61161 6.0984,-0.61161 8.2013,0 2.8413,0.82639 6.7525,1.84477 10.7232,2.79204 1.2833,0.30616 3.6083,0.88141 5.1667,1.27833 1.5583,0.39692 4.0333,1.02167 5.5,1.38834 1.4666,0.36666 3.8666,0.96666 5.3333,1.33333 1.4667,0.36667 3.8667,0.96667 5.3333,1.33333 1.4667,0.36667 3.7917,0.94192 5.1667,1.27833 5.1813,1.26768 8.5272,2.31569 9.3333,2.92339 0.4584,0.34552 0.8334,1.77377 0.8334,3.1739 0,1.40013 0.375,2.7884 0.8333,3.08504 0.4583,0.29664 12.0833,0.72344 25.8333,0.94844 14.0682,0.2302 26.3118,0.72442 28,1.13021 3.9836,0.95755 8.3974,2.03765 11.6667,2.85498 1.4667,0.36667 3.8667,0.96667 5.3333,1.33333 1.4667,0.36667 3.7917,0.95296 5.1667,1.30286 5.1883,1.32029 11.5203,2.88853 16.1667,4.004 2.8308,0.67961 8.0212,1.784 11.3333,2.4115 3.0473,0.57733 5.177,2.83558 4.7391,5.02524 -0.4122,2.06102 0.1027,2.51996 3.7095,3.30605 1.4033,0.30583 3.6764,0.84235 5.0514,1.19225 1.375,0.34991 3.7,0.9362 5.1667,1.30286 1.4666,0.36667 3.9416,0.98038 5.5,1.36381 1.5583,0.38344 3.9583,0.98344 5.3333,1.33334 1.375,0.3499 3.775,0.9499 5.3333,1.33333 1.5584,0.38343 4.0334,0.99715 5.5,1.36381 1.4667,0.36667 3.8667,0.96667 5.3334,1.33334 6.6018,1.65045 8.513,2.06854 11.156,2.44046 1.5524,0.21846 3.1604,0.80425 3.5733,1.30175 0.8191,0.98699 0.5602,6.89904 -0.6975,15.92445 -0.4088,2.93334 -0.9714,7.31669 -1.2502,9.74079 -0.2789,2.4241 -1.021,5.19199 -1.6494,6.15087 l -1.1422,1.7434 -51.9398,0.18247 c -28.5668,0.10036 -52.176,0.41895 -52.4649,0.70797 -0.2889,0.28902 -0.4776,2.38902 -0.4194,4.66666 0.058,2.27765 0.4321,16.44118 0.8309,31.47451 0.3987,15.03334 1.0143,39.18334 1.3679,53.66667 1.4681,60.13146 1.9504,78.12043 2.3207,86.55284 0.279,6.3553 0.1662,9.15593 -0.396,9.83333 -0.655,0.78932 -5.1333,0.94508 -26.871,0.93465 l -26.0851,-0.0125 -3.4977,-2.36252 z m 52.6451,-8.27911 c -0.1023,-3.48334 -0.4717,-17.73334 -0.821,-31.66667 -0.3493,-13.93333 -0.9313,-36.73333 -1.2935,-50.66667 -0.3621,-13.93333 -0.9632,-37.33333 -1.3358,-52 -0.3725,-14.66667 -0.8568,-30.52126 -1.0763,-35.23242 -0.2195,-4.71116 -0.2204,-9.27746 0,-10.14732 l 0.3969,-1.58158 52.6258,-0.18601 c 33.9559,-0.12002 52.857,-0.42252 53.2774,-0.85267 0.3585,-0.36667 1.0036,-3.51667 1.4336,-7 1.2414,-10.05513 1.8595,-14.22289 2.348,-15.83334 0.2503,-0.825 0.3451,-1.5681 0.2106,-1.65132 -0.1344,-0.0832 -34.7444,-0.38822 -76.911,-0.67774 -135.4475,-0.92999 -1675.855353,-2.61843 -1676.499205,-1.8376 -0.563383,0.68323 1.813642,23.87192 2.519458,24.57816 0.231867,0.23201 23.39948,0.50413 51.48358,0.60471 40.800337,0.14613 51.170357,0.0121 51.601167,-0.66667 0.29653,-0.46724 0.54375,-2.90262 0.54936,-5.41195 0.009,-3.99712 0.17541,-4.60561 1.34354,-4.91109 0.73333,-0.19177 1.33333,-0.57869 1.33333,-0.85983 0,-0.28114 0.525,-0.68538 1.16667,-0.89833 0.64167,-0.21294 2.36667,-0.84341 3.83333,-1.40104 2.21526,-0.84226 6.96377,-1.01559 28.05132,-1.02392 l 25.38466,-0.01 0.78642,5.16666 c 1.17305,7.70684 0.99908,8.5263 -2.05573,9.68305 -4.30065,1.6285 1.27821,1.81923 54.66667,1.86899 189.484,0.1766 624.47113,-0.16151 624.99586,-0.48581 0.3452,-0.21336 0.55394,-2.07805 0.46374,-4.14375 -0.0901,-2.0657 -0.11794,-5.33081 -0.062,-7.25581 l 0.1024,-3.5 h 25.86173 25.86173 l 0.80494,3.00957 c 0.44273,1.65526 0.80493,4.63072 0.80493,6.61214 0,1.98142 0.18207,4.07711 0.40467,4.6571 0.3648,0.95075 6.2932,1.05452 60.24233,1.05452 37.7684,0 61.1561,0.25005 63.4125,0.67796 3.6112,0.68485 560.3436,1.1412 561.0249,0.45988 0.179,-0.17904 -0.5766,-0.72483 -1.6791,-1.21287 -2.6866,-1.18917 -3.238,-4.39087 -1.7003,-9.87134 l 1.1374,-4.05363 26.4121,-0.0179 c 25.6501,-0.0174 26.5515,0.0259 31.2422,1.5 4.4547,1.39999 4.8302,1.66038 4.8333,3.35127 l 0.01,1.83333 h -20.2356 c -11.1295,0 -22.1067,0.19557 -24.3937,0.43461 l -4.1581,0.43462 0.4533,2.73205 c 0.5827,3.51183 1.7285,51.73331 1.9658,82.73206 0.2752,35.94283 1.3251,85.23875 1.8322,86.03057 0.2456,0.38348 0.5099,5.26661 0.5872,10.8514 0.077,5.58478 0.2832,10.89988 0.4575,11.81131 l 0.3168,1.65715 23.0872,-0.17521 23.084,-0.17522 z M 833.33333,287.28907 c 0,-1.83682 0.18607,-2.02288 1.83334,-1.83334 1.44,0.16569 1.8786,0.6043 2.04426,2.04428 0.18954,1.64728 0.007,1.83334 -1.83333,1.83334 -1.8368,0 -2.04427,-0.20746 -2.04427,-2.04428 z m 794.95977,182.37762 c -0.2482,-3.3 -0.6778,-17.85 -0.9545,-32.33334 -0.6794,-35.56109 -1.8989,-79.35566 -2.3577,-84.66667 -0.2059,-2.38333 -0.6338,-16.78333 -0.951,-32 -0.6695,-32.11894 -0.8875,-34.27599 -3.6061,-35.68029 -2.8139,-1.4535 -4.3627,-1.23403 -5.107,0.72369 -1.3621,3.58285 -0.8884,4.71661 2.3499,5.62327 1.65,0.46197 3.0538,0.87596 3.1197,0.91997 0.3053,0.20407 1.3541,45.73268 3.1883,138.41337 0.8673,43.82103 1.1211,48.77771 2.5532,49.86327 1.0188,0.77233 1.1956,0.56162 1.6776,-2 0.2964,-1.5748 0.3358,-5.56327 0.088,-8.86327 z m -702.02363,10.43666 c 0.24726,-0.40013 0.652,-186.19689 0.42246,-193.9581 -0.02,-0.68194 -4.6644,-0.81672 -22.97046,-0.66666 -12.61987,0.10345 -23.19487,0.43692 -23.5,0.74104 -0.30514,0.30413 -0.7048,2.85413 -0.88814,5.66667 L 879,297.00001 l -3.66667,0.19475 -3.66666,0.19475 0.33333,34.13859 0.33333,34.13858 3.32047,0.20948 c 1.8262,0.11521 3.5466,0.56521 3.82313,1 0.27647,0.43479 0.50727,26.01552 0.51287,56.84608 0.007,30.83056 0.2102,56.25556 0.45467,56.5 0.657,0.65704 45.4172,0.54091 45.825,-0.11889 z m -745.97809,-2.26999 c 0.93935,-4.44791 1.20711,-10.10188 1.77596,-37.50001 0.34257,-16.5 0.91227,-42.6 1.26599,-58 0.35372,-15.4 0.91352,-41.5 1.244,-58 0.33047,-16.5 0.81982,-30.97505 1.08744,-32.16677 0.26763,-1.19172 0.28808,-3.49051 0.0455,-5.10842 l -0.44113,-2.94166 -22.63455,-0.0707 c -17.81028,-0.0556 -22.66467,0.10957 -22.77584,0.77508 -0.17261,1.03324 -0.34541,7.13562 -1.19443,42.17912 -0.36422,15.03334 -0.96315,39.48334 -1.33095,54.33334 -0.3678,14.85 -0.95652,39.15 -1.30827,54 -0.35175,14.85 -0.82061,30.4083 -1.04191,34.57398 -0.2213,4.16569 -0.24245,7.99069 -0.047,8.50001 0.29347,0.76476 4.24599,0.92602 22.6969,0.92602 h 22.34156 l 0.31678,-1.5 z m 6.54614,-28.68967 c 0.27731,-14.74568 0.79965,-41.36034 1.16078,-59.14367 0.36113,-17.78334 0.88424,-47.23365 1.16248,-65.44515 0.27824,-18.2115 0.65589,-33.23373 0.83922,-33.38274 0.18333,-0.14902 1.49266,-0.80407 2.90961,-1.45567 2.4517,-1.12744 2.55683,-1.30235 2.174,-3.61725 -0.22124,-1.3379 -0.40557,-2.9524 -0.4096,-3.58781 -0.007,-1.05397 -0.22656,-1.03308 -2.50734,0.23831 -1.375,0.76647 -2.62114,1.50748 -2.76919,1.64669 -0.75444,0.70935 -1.59459,18.34868 -2.14034,44.93695 -0.33491,16.31667 -0.90633,42.41667 -1.26983,58 -0.36349,15.58334 -0.82182,41.08082 -1.0185,56.66107 -0.21033,16.66132 -0.62074,28.59087 -0.99654,28.96667 -0.73672,0.73671 -0.86038,3.9286 -0.17862,4.61036 0.25318,0.25317 0.92818,-0.007 1.5,-0.57855 0.88966,-0.88895 1.11244,-4.90769 1.54387,-27.84921 z m -3.51439,20.91188 c 0.0135,-2.13974 -0.36551,-1.59741 -0.8931,1.27778 -0.30124,1.64162 -0.23384,2.03688 0.22736,1.33334 0.36054,-0.55 0.66012,-1.725 0.66574,-2.61112 z m 1.18578,-58.72222 c 0,-1.48667 -0.0549,-1.45067 -0.50891,0.33334 -0.2799,1.1 -0.50891,2.75 -0.50891,3.66666 0,1.48668 0.0549,1.45068 0.50891,-0.33333 0.2799,-1.1 0.50891,-2.75 0.50891,-3.66667 z M 1464.1953,364.66668 c 0.5975,-2.39293 1.3785,-7.02768 2.4714,-14.66666 0.341,-2.38334 0.941,-6.28334 1.3333,-8.66667 0.3923,-2.38333 1.0029,-6.35833 1.3567,-8.83333 0.3538,-2.475 0.9328,-6.52501 1.2866,-9.00001 0.3538,-2.475 0.9705,-6.45 1.3704,-8.83333 0.4,-2.38333 0.889,-6.13333 1.087,-8.33333 0.1978,-2.2 0.6647,-4.37118 1.0374,-4.82485 0.3728,-0.45366 0.5036,-1.27866 0.2908,-1.83333 -0.3312,-0.86296 -2.7896,-1.00849 -17.0353,-1.00849 -10.1455,0 -16.8059,0.25501 -17.0517,0.65289 -0.222,0.35909 -0.6988,2.98409 -1.0597,5.83333 -0.6697,5.28694 -1.4217,10.46479 -2.6403,18.18045 -0.6427,4.06853 -0.9806,6.37085 -2.6419,18 -0.3667,2.56667 -0.9791,6.84167 -1.3609,9.5 -0.3819,2.65833 -0.8527,6.33333 -1.0462,8.16667 -0.1936,1.83333 -0.671,3.98809 -1.061,4.78836 -0.39,0.80026 -0.5266,1.93052 -0.3036,2.51168 0.3576,0.9318 2.3538,1.03558 16.8949,0.8783 l 16.4895,-0.17834 z m -37.0871,-1.5 c -0.1849,-0.45833 -0.3363,-0.0833 -0.3363,0.83334 0,0.91666 0.1514,1.29166 0.3363,0.83333 0.1849,-0.45833 0.1849,-1.20833 0,-1.66667 z m -1077.44567,-1.1422 c 0.24552,-1.45321 0.2601,-2.94364 0.0324,-3.31206 -0.22769,-0.36842 -0.70176,-3.60442 -1.05349,-7.19113 -0.35173,-3.5867 -0.94089,-8.92127 -1.30925,-11.85461 -0.36836,-2.93333 -0.96785,-8.03333 -1.33219,-11.33333 -0.36434,-3.3 -0.96383,-8.4 -1.33219,-11.33334 -0.36836,-2.93333 -0.95752,-8.2679 -1.30925,-11.8546 -0.35173,-3.58671 -0.80677,-6.79193 -1.01121,-7.12272 -0.42167,-0.68228 -31.53046,-0.96096 -33.25826,-0.29795 -0.74463,0.28574 -0.91279,0.68558 -0.49898,1.18646 0.34327,0.41551 0.79026,2.85548 0.99331,5.42215 0.38058,4.81072 1.18922,11.61468 2.41658,20.33333 0.65907,4.68177 0.9625,7.03336 2.66667,20.66667 0.36666,2.93333 0.91258,7.65833 1.21315,10.5 0.30057,2.84167 0.89315,5.99167 1.31683,7 l 0.77035,1.83333 h 15.62457 15.62456 z m 1080.32727,-0.96891 c 0.013,-1.70563 -0.3679,-1.17351 -0.9163,1.27778 -0.3267,1.46061 -0.2648,1.73031 0.2294,1 0.3722,-0.55 0.6813,-1.575 0.6869,-2.27778 z M 353.12207,360.54168 c -0.21281,-0.53182 -0.37078,-0.37385 -0.40277,0.40278 -0.0289,0.70278 0.12862,1.09653 0.35015,0.875 0.22152,-0.22152 0.2452,-0.79653 0.0526,-1.27778 z m -167.27982,-6.54166 c 0,-1.48668 -0.0549,-1.45068 -0.50892,0.33333 -0.2799,1.1 -0.50891,2.75 -0.50891,3.66667 0,1.48667 0.0549,1.45067 0.50891,-0.33334 0.2799,-1.1 0.50892,-2.75 0.50892,-3.66666 z m 1242.62925,1.8411 c -0.1594,-0.82927 -0.296,-0.30777 -0.3034,1.1589 -0.01,1.46666 0.1231,2.14516 0.29,1.50777 0.1668,-0.63739 0.1729,-1.83739 0.013,-2.66667 z m -1076.01609,1.36723 c -0.21282,-0.53182 -0.37079,-0.37385 -0.40278,0.40278 -0.0289,0.70277 0.12862,1.09653 0.35015,0.875 0.22153,-0.22153 0.24521,-0.79653 0.0526,-1.27778 z m -1.48571,-2.8447 c -0.25501,-1.70054 -0.60003,-2.95553 -0.76669,-2.78887 -0.16667,0.16667 -0.0944,1.69439 0.16062,3.39494 0.25502,1.70054 0.60003,2.95553 0.7667,2.78886 0.16666,-0.16666 0.0944,-1.69438 -0.16063,-3.39493 z m 1080.2307,-2.69697 c 0,-1.05578 -0.1111,-0.98638 -0.5337,0.33334 -0.2936,0.91666 -0.5338,2.26666 -0.5338,3 0,1.05578 0.1111,0.98638 0.5338,-0.33334 0.2936,-0.91666 0.5337,-2.26666 0.5337,-3 z m -1079.39658,-2.5 c -0.1589,-0.825 -0.28891,-0.15 -0.28891,1.5 0,1.65 0.13001,2.325 0.28891,1.5 0.15891,-0.825 0.15891,-2.175 0,-3 z m 1078.00108,-2.65889 c -0.1595,-0.82927 -0.296,-0.30777 -0.3034,1.15889 -0.01,1.46667 0.123,2.14517 0.2899,1.50778 0.1669,-0.6374 0.1729,-1.8374 0.013,-2.66667 z M 351.12207,345.20835 c -0.21281,-0.53182 -0.37078,-0.37385 -0.40277,0.40278 -0.0289,0.70277 0.12862,1.09653 0.35015,0.875 0.22152,-0.22153 0.2452,-0.79653 0.0526,-1.27778 z m 1081.41163,-2.875 c 0,-1.05578 -0.111,-0.98639 -0.5337,0.33333 -0.2936,0.91667 -0.5337,2.26667 -0.5337,3 0,1.05578 0.111,0.98639 0.5337,-0.33333 0.2936,-0.91667 0.5337,-2.26667 0.5337,-3 z m -1082.89733,0.0303 c -0.25502,-1.70054 -0.60003,-2.95554 -0.7667,-2.78887 -0.16666,0.16667 -0.0944,1.69439 0.16063,3.39493 0.25501,1.70054 0.60003,2.95554 0.76669,2.78887 0.16667,-0.16667 0.0944,-1.69439 -0.16062,-3.39493 z m 0.82318,-4.19697 c -0.16768,-0.64167 -0.30488,-0.11667 -0.30488,1.16667 0,1.28333 0.1372,1.80833 0.30488,1.16666 0.16768,-0.64166 0.16768,-1.69166 0,-2.33333 z m 1080.67865,-0.99223 c -0.1595,-0.82927 -0.296,-0.30777 -0.3034,1.1589 -0.01,1.46666 0.1231,2.14516 0.2899,1.50777 0.1669,-0.63739 0.173,-1.83739 0.013,-2.66667 z m 2.7289,-4.17444 c 0,-1.05578 -0.1111,-0.98638 -0.5338,0.33334 -0.2936,0.91666 -0.5337,2.26666 -0.5337,3 0,1.05578 0.1111,0.98638 0.5337,-0.33334 0.2936,-0.91666 0.5338,-2.26666 0.5338,-3 z m -1084.07836,1.54167 c -0.21281,-0.53182 -0.37079,-0.37385 -0.40277,0.40278 -0.0289,0.70277 0.12862,1.09653 0.35014,0.875 0.22153,-0.22153 0.24521,-0.79653 0.0526,-1.27778 z m -1.48571,-2.8447 c -0.25501,-1.70054 -0.60002,-2.95554 -0.76669,-2.78887 -0.16667,0.16667 -0.0944,1.69439 0.16063,3.39494 0.25501,1.70054 0.60002,2.95553 0.76669,2.78886 0.16667,-0.16666 0.0944,-1.69438 -0.16063,-3.39493 z m 1084.16847,-3.85586 c -0.1594,-0.82928 -0.296,-0.30778 -0.3034,1.15889 -0.01,1.46667 0.1231,2.14517 0.29,1.50778 0.1668,-0.6374 0.1729,-1.8374 0.013,-2.66667 z M 349.12622,327.50001 c -0.16769,-0.64166 -0.30489,-0.11666 -0.30489,1.16667 0,1.28334 0.1372,1.80834 0.30489,1.16667 0.16768,-0.64167 0.16768,-1.69167 0,-2.33334 z m 1085.80028,-1.83333 c 0.3267,-1.46061 0.2648,-1.73031 -0.2294,-1 -0.3722,0.55 -0.6813,1.575 -0.6869,2.27778 -0.013,1.70563 0.3679,1.17351 0.9163,-1.27778 z M 348.45541,323.20835 c -0.21282,-0.53182 -0.37079,-0.37386 -0.40278,0.40278 -0.0289,0.70277 0.12862,1.09652 0.35015,0.875 0.22153,-0.22153 0.24521,-0.79654 0.0526,-1.27778 z m -1.48571,-3.51137 c -0.25501,-1.70054 -0.60003,-2.95553 -0.76669,-2.78887 -0.16667,0.16667 -0.0944,1.69439 0.16062,3.39494 0.25502,1.70054 0.60003,2.95553 0.7667,2.78886 0.16666,-0.16666 0.0944,-1.69438 -0.16063,-3.39493 z m 1086.8341,-1.19697 c -0.1589,-0.825 -0.2889,-0.15 -0.2889,1.5 0,1.65 0.13,2.325 0.2889,1.5 0.1589,-0.825 0.1589,-2.175 0,-3 z m -1086.01091,-3 c -0.16769,-0.64166 -0.30489,-0.11666 -0.30489,1.16667 0,1.28333 0.1372,1.80833 0.30489,1.16667 0.16768,-0.64167 0.16768,-1.69167 0,-2.33334 z m 1088.86361,0.22222 c 0.013,-1.70562 -0.368,-1.1735 -0.9163,1.27778 -0.3267,1.46062 -0.2649,1.73031 0.2293,1 0.3722,-0.55 0.6814,-1.575 0.687,-2.27778 z m -1.5114,-6.21305 c -0.1533,-1.01337 -0.2828,-0.3425 -0.2878,1.49083 -0.01,1.83334 0.1204,2.66246 0.2786,1.8425 0.1583,-0.81996 0.1624,-2.31996 0.01,-3.33333 z m -1088.02303,2.36583 c -0.21281,-0.53182 -0.37078,-0.37385 -0.40277,0.40278 -0.0289,0.70278 0.12862,1.09653 0.35015,0.875 0.22152,-0.22152 0.2452,-0.79653 0.0526,-1.27778 z m -1.4857,-2.8447 c -0.25502,-1.70054 -0.60003,-2.95553 -0.7667,-2.78886 -0.16666,0.16666 -0.0944,1.69438 0.16063,3.39493 0.25501,1.70054 0.60003,2.95553 0.76669,2.78887 0.16667,-0.16667 0.0944,-1.69439 -0.16062,-3.39494 z m 1092.23073,-2.69696 c 0,-1.05578 -0.1111,-0.98639 -0.5338,0.33333 -0.2936,0.91667 -0.5337,2.26667 -0.5337,3 0,1.05578 0.1111,0.98639 0.5337,-0.33333 0.2936,-0.91667 0.5338,-2.26667 0.5338,-3 z m -1091.40755,-1.5 c -0.16768,-0.64167 -0.30488,-0.11667 -0.30488,1.16666 0,1.28334 0.1372,1.80834 0.30488,1.16667 0.16768,-0.64167 0.16768,-1.69167 0,-2.33333 z m 1090.01095,-4.33334 c -0.1589,-0.825 -0.2889,-0.15 -0.2889,1.5 0,1.65 0.13,2.325 0.2889,1.5 0.1589,-0.825 0.1589,-2.175 0,-3 z M 345.77485,299.83335 c -0.18494,-0.45834 -0.33626,-0.0833 -0.33626,0.83333 0,0.91667 0.15132,1.29167 0.33626,0.83333 0.18494,-0.45833 0.18494,-1.20833 0,-1.66666 z m -158.59927,-4.5 c 0,-1.48668 -0.0549,-1.45068 -0.50891,0.33333 -0.2799,1.1 -0.50892,2.75 -0.50892,3.66667 0,1.48667 0.0549,1.45067 0.50892,-0.33334 0.2799,-1.1 0.50891,-2.75 0.50891,-3.66666 z M 1327.5,298.17069 c -3.025,-0.12353 -7.975,-0.12353 -11,0 -3.025,0.12353 -0.55,0.2246 5.5,0.2246 6.05,0 8.525,-0.10107 5.5,-0.2246 z m -882.96835,-1.33231 c -2.82425,-0.12465 -7.62425,-0.12535 -10.66666,-10e-4 -3.04241,0.1238 -0.73166,0.22579 5.13501,0.22664 5.86667,6.6e-4 8.35591,-0.10046 5.53165,-0.22511 z m 424.62115,0.0922 c -0.22153,-0.22153 -0.79653,-0.24521 -1.2778,-0.0526 -0.5318,0.21281 -0.37387,0.37078 0.4028,0.40277 0.70273,0.0289 1.09653,-0.12862 0.875,-0.35015 z m 8.6026,-2.77411 c 0.0689,-1.17404 0.0227,-1.22027 -0.20767,-0.20766 -0.163,0.71641 -0.95293,1.44515 -1.7554,1.61942 -1.21506,0.26389 -1.18033,0.29861 0.20767,0.20766 1.2252,-0.0803 1.69013,-0.50921 1.7554,-1.61942 z m 50.7,-8.28145 c -0.2128,-0.53182 -0.3708,-0.37385 -0.4028,0.40278 -0.0287,0.70278 0.12867,1.09653 0.3502,0.875 0.22153,-0.22152 0.2452,-0.79653 0.0527,-1.27778 z m -789.62942,-1.52149 c 0.17311,-0.90557 0.0581,-1.48787 -0.25562,-1.29399 -0.55237,0.34139 -0.83058,2.94048 -0.31475,2.94048 0.1406,0 0.39726,-0.74092 0.57037,-1.64649 z M 1661,283.30267 c -4.3767,-0.68169 -32.8535,-0.65673 -35,0.0307 -0.9167,0.29357 7.3333,0.52358 18.3333,0.51114 12.0418,-0.0136 18.6736,-0.22921 16.6667,-0.54181 z m -740.66087,-1.2933 c -0.48993,-0.79266 -32.33746,-0.85675 -37.0058,-0.0745 -1.7418,0.29187 5.477,0.55467 17.2118,0.6266 13.5218,0.0829 20.07347,-0.0999 19.794,-0.55212 z M 187,280.63787 c -1.67505,-0.6836 -30.05929,-0.68234 -35,10e-4 -2.19943,0.30445 4.33646,0.51455 16.33333,0.52507 11,0.01 19.4,-0.22734 18.66667,-0.52662 z m 1447.3333,-13.30452 c -1.1,-0.2799 -2.75,-0.50892 -3.6666,-0.50892 -1.4867,0 -1.4507,0.0549 0.3333,0.50892 1.1,0.2799 2.75,0.50891 3.6667,0.50891 1.4866,0 1.4506,-0.0549 -0.3334,-0.50891 z M 625,266.00001 c -1.1,-0.2799 -2.75,-0.50891 -3.66667,-0.50891 -1.48667,0 -1.45067,0.0549 0.33334,0.50891 1.1,0.2799 2.75,0.50892 3.66666,0.50892 1.48668,0 1.45068,-0.0549 -0.33333,-0.50892 z m 1145,-0.0399 c -1.2833,-0.30425 -3.6083,-0.86975 -5.1667,-1.25667 -1.5583,-0.38692 -4.1083,-1.01721 -5.6666,-1.40064 -1.5584,-0.38343 -3.9584,-0.98343 -5.3334,-1.33333 -1.375,-0.3499 -3.7,-0.93619 -5.1666,-1.30286 -1.4667,-0.36666 -3.7917,-0.95295 -5.1667,-1.30285 -4.6715,-1.18878 -7.8273,-1.96813 -10.5,-2.59299 -3.1591,-0.73861 -7.0651,-2.10011 -8,-2.78855 -0.3667,-0.27002 -1.8667,-0.72433 -3.3333,-1.00958 -3.5476,-0.68997 -601.169,-1.61116 -1175.13337,-1.81137 -369.25678,-0.12881 -462.63463,0.007 -463.300003,0.67201 -0.458327,0.45833 -1.427027,0.83333 -2.15266,0.83333 -0.725634,0 -2.240634,0.27825 -3.366667,0.61834 -2.243333,0.67753 -9.51562,2.77416 -16.547333,4.77066 -2.475,0.70272 -6.525,1.8624 -9,2.57707 -2.475,0.71467 -5.957214,1.68967 -7.738254,2.16667 -3.750783,1.00453 233.126357,1.52072 1085.682687,2.36588 278.1778,0.27576 506.0028,0.72638 506.2778,1.00138 0.275,0.275 30.975,0.4655 68.2222,0.42334 37.5062,-0.0425 66.6812,-0.32348 65.3889,-0.62984 z m -43.6667,-13.29347 c -0.2266,-0.36667 -0.7693,-0.66208 -1.206,-0.65646 -0.477,0.006 -0.3948,0.26815 0.206,0.65646 1.2808,0.82768 1.5116,0.82768 1,0 z m -5,-1.33334 c -0.55,-0.35544 -1.75,-0.61534 -2.6666,-0.57758 -1.5376,0.0633 -1.5118,0.10809 0.3333,0.57758 2.8817,0.73326 3.4679,0.73326 2.3333,0 z m -707,-1.33333 c -1.1,-0.2799 -2.75,-0.50891 -3.6666,-0.50891 -1.4867,0 -1.4507,0.0549 0.3333,0.50891 1.1,0.2799 2.75,0.50891 3.6667,0.50891 1.4866,0 1.4506,-0.0549 -0.3334,-0.50891 z m 711,0 c -0.9166,-0.29357 -2.5666,-0.54258 -3.6666,-0.55335 -1.6982,-0.0167 -1.7988,0.0669 -0.6667,0.55335 0.7333,0.31513 2.3833,0.56413 3.6667,0.55335 2.1212,-0.0178 2.1818,-0.0681 0.6666,-0.55335 z m -240,-1.36736 c -1.65,-0.29359 -108.9,-0.51347 -238.3333,-0.48862 -129.4333,0.0249 -234.1333,0.26005 -232.6667,0.52265 1.4667,0.2626 108.7167,0.48248 238.3334,0.48862 129.6166,0.006 234.3166,-0.22906 232.6666,-0.52265 z M 87.15278,247.59723 c -0.221533,-0.22153 -0.796533,-0.24521 -1.27778,-0.0526 -0.53182,0.21281 -0.373853,0.37079 0.40278,0.40277 0.702773,0.0289 1.096527,-0.12862 0.875,-0.35014 z M 380,247.29932 c -3.98592,-0.70924 -286.23832,-0.71335 -289.666667,-0.004 -1.466666,0.30336 63.783337,0.54853 144.999997,0.5448 C 316.55,247.83612 381.65,247.59313 380,247.29954 Z m 1109,0.034 c -1.1,-0.2799 -2.75,-0.50891 -3.6667,-0.50891 -1.4866,0 -1.4506,0.0549 0.3334,0.50891 1.1,0.2799 2.75,0.50892 3.6666,0.50892 1.4867,0 1.4507,-0.0549 -0.3333,-0.50892 z M 383.66667,246.00001 c -1.1,-0.2799 -2.75,-0.50891 -3.66667,-0.50891 -1.48667,0 -1.45067,0.0549 0.33333,0.50891 1.1,0.2799 2.75,0.50891 3.66667,0.50891 1.48667,0 1.45067,-0.0549 -0.33333,-0.50891 z m 1329.00003,-0.0399 c -1.2834,-0.30424 -3.6084,-0.86974 -5.1667,-1.25666 -1.5583,-0.38692 -4.1083,-1.01721 -5.6667,-1.40064 -3.6072,-0.88756 -7.4838,-1.85672 -10.6666,-2.66667 -9.5938,-2.44137 -12.525,-3.11444 -19.1667,-4.40109 -6.0669,-1.17529 13.1565,-1.10865 -797,-2.76278 l -231.33333,-0.47232 v -1.66666 -1.66667 l 113.66666,-0.49547 C 819.85,228.89868 923.2,228.37245 987,228.00179 c 214.9639,-1.24887 343.4125,-1.99112 459.3333,-2.65428 114.9796,-0.65777 160.0917,-1.27582 155.6667,-2.13269 -2.191,-0.42428 -4.9201,-1.07386 -10.8333,-2.57865 -1.375,-0.3499 -3.7,-0.93619 -5.1667,-1.30285 -1.4667,-0.36667 -3.8667,-0.96667 -5.3333,-1.33334 -1.4667,-0.36666 -3.9417,-0.98627 -5.5,-1.3769 -1.5584,-0.39063 -3.2834,-0.66272 -3.8334,-0.60465 -0.55,0.0581 -51.524,0.21439 -113.2756,0.34738 -61.7516,0.13298 -112.7516,0.48007 -113.3333,0.77131 -0.5817,0.29124 -51.6077,0.75465 -113.3911,1.0298 -106.0852,0.47244 -188.7354,0.92818 -453.3333,2.4997 -225.95493,1.342 -342.74624,2.0168 -452,2.61156 -108.80817,0.59233 -147.55897,1.24623 -153,2.5818 -1.46667,0.36001 -4.31667,1.16215 -6.33333,1.78253 -2.01667,0.62038 -4.86667,1.42824 -6.33334,1.79525 -2.67294,0.66884 -10.2098,2.78487 -14.04733,3.94388 -1.12603,0.34009 -3.84593,0.61834 -6.04423,0.61834 -4.8618,0 -10.41229,0.9041 -16.40844,2.6727 -6.63986,1.95847 -13.14489,3.798 -16.16666,4.5717 -1.46667,0.37553 -4.12395,1.07417 -5.90507,1.55252 -4.719313,1.26748 173.72231,1.77387 835.34953,2.3706 304.39437,0.27453 553.66937,0.72415 553.94437,0.99915 0.275,0.275 50.775,0.4655 112.2223,0.42333 61.4472,-0.0421 110.6722,-0.32559 109.3889,-0.62984 z m -601,-13.29346 c -1.1,-0.2799 -2.75,-0.50892 -3.6667,-0.50892 -1.4867,0 -1.4507,0.0549 0.3333,0.50892 1.1,0.2799 2.75,0.50891 3.6667,0.50891 1.4867,0 1.4507,-0.0549 -0.3333,-0.50891 z M 874,231.00001 c 0,-0.62445 0.68847,-1.03409 1.83333,-1.09079 1.6828,-0.0833 1.70387,-0.11534 0.25647,-0.38978 -0.86733,-0.16444 -1.90233,0.0264 -2.3,0.42413 -0.51407,0.51404 -33.54847,0.72311 -114.25647,0.72311 -75.24446,0 -113.53333,0.22483 -113.53333,0.66666 0,0.44185 38.44447,0.66667 114,0.66667 100.88887,0 114,-0.11501 114,-1 z m 742.6323,0.57355 c 1.9032,-0.38065 2.0853,-0.61317 1.6958,-2.1653 -0.2401,-0.95636 -0.5868,-1.88946 -0.7706,-2.07355 -0.1838,-0.18409 -11.6344,-0.27089 -25.4458,-0.19291 -13.8114,0.078 -76.8617,0.45137 -140.1117,0.82973 -63.25,0.37836 -167.2501,0.91455 -231.1113,1.19153 -63.8612,0.27699 -116.3362,0.72862 -116.611,1.00362 -0.275,0.275 0.9751,0.53549 2.7778,0.57887 1.8028,0.0434 4.1778,0.30789 5.2778,0.58779 2.4076,0.61261 501.2489,0.85023 504.299,0.24022 z m -510.299,-2.90688 c 1.784,-0.45396 1.82,-0.50892 0.3334,-0.50892 -0.9167,0 -2.5667,0.22902 -3.6667,0.50892 -1.784,0.45395 -1.82,0.50891 -0.3333,0.50891 0.9166,0 2.5666,-0.22901 3.6666,-0.50891 z m 229.3334,-1.33334 c 1.784,-0.45395 1.82,-0.50891 0.3333,-0.50891 -0.9167,0 -2.5667,0.22901 -3.6667,0.50891 -1.784,0.45396 -1.82,0.50892 -0.3333,0.50892 0.9167,0 2.5667,-0.22902 3.6667,-0.50892 z M 1565,226.00001 c 1.784,-0.45395 1.82,-0.50891 0.3333,-0.50891 -0.9166,0 -2.5666,0.22901 -3.6666,0.50891 -1.784,0.45395 -1.82,0.50891 -0.3334,0.50891 0.9167,0 2.5667,-0.22901 3.6667,-0.50891 z M 332.14961,219.16668 c 0.0823,-0.0917 0.3337,-30.91667 0.5587,-68.50001 0.22499,-37.58333 0.63461,-69.259953 0.91027,-70.392493 0.37187,-1.527833 0.21543,-2.344933 -0.60631,-3.166667 -0.97164,-0.971633 -3.10064,-1.107507 -17.35388,-1.107507 -12.26628,0 -16.37791,0.204154 -16.7833,0.833334 -0.29532,0.458333 -0.59838,12.683334 -0.67348,27.166663 -0.0751,14.48334 -0.30552,45.98065 -0.51206,69.99404 -0.20654,24.01339 -0.2306,44.03839 -0.0535,44.5 0.24724,0.6443 4.27673,0.8393 17.34299,0.8393 9.36151,0 17.08825,-0.075 17.17053,-0.16666 z m 3.65523,-3.32556 c -0.15946,-0.82928 -0.29599,-0.30778 -0.30339,1.15889 -0.007,1.46667 0.12308,2.14517 0.28994,1.50777 0.16686,-0.63739 0.17291,-1.83739 0.0135,-2.66666 z m 75.64063,3.15208 c 1.09105,-0.41798 0.50262,-7.7524 -2.11214,-26.32652 -0.38712,-2.75 -0.9955,-7.325 -1.35193,-10.16667 -0.35644,-2.84167 -0.93969,-7.49167 -1.29613,-10.33334 -0.35644,-2.84166 -0.96481,-7.41666 -1.35194,-10.16666 -0.38712,-2.75 -0.9955,-7.325 -1.35193,-10.16667 -0.35644,-2.84167 -0.93969,-7.49167 -1.29613,-10.33333 -0.35644,-2.84167 -0.96481,-7.41667 -1.35194,-10.16667 -0.38712,-2.75 -0.9955,-7.325 -1.35193,-10.16667 -1.69369,-13.50287 -2.02095,-16.18525 -2.56207,-21 -0.74364,-6.616732 -1.21731,-7.956126 -2.98096,-8.429259 -1.91844,-0.514654 -52.35333,-0.497974 -54.27871,0.01793 l -1.50701,0.40382 0.26104,59.753749 c 0.14356,32.86457 0.47455,61.31211 0.73552,63.21678 0.32749,2.39017 0.81676,3.55379 1.5793,3.756 1.56779,0.41574 69.14234,0.51919 70.21696,0.1075 z m 28.72697,-0.67342 c 2.66349,-0.49638 3.80185,-2.4374 2.8258,-4.81828 -0.26339,-0.64248 -0.76296,-3.56816 -1.11015,-6.50149 -0.3472,-2.93333 -0.91501,-7.58333 -1.2618,-10.33333 -0.34678,-2.75 -0.92862,-7.7 -1.29296,-11 -0.36434,-3.30001 -0.94513,-8.25001 -1.29065,-11.00001 -0.34552,-2.75 -0.96473,-7.7 -1.37601,-11 -0.41129,-3.3 -1.0305,-8.25 -1.37602,-11 -0.34552,-2.75 -0.92513,-7.7 -1.28802,-11 -0.61173,-5.56277 -1.04106,-9.10134 -2.70967,-22.33333 -0.34679,-2.75 -0.92467,-7.7 -1.28419,-11 -1.42319,-13.063402 -2.00447,-16.585896 -2.82266,-17.105103 -0.98916,-0.6277 -24.55159,-0.763206 -26.1486,-0.15038 -0.70774,0.271587 -0.85964,0.667687 -0.4474,1.166667 0.34327,0.415514 0.79026,2.85548 0.99331,5.422147 0.20305,2.566669 0.67985,7.141669 1.05955,10.166669 0.3797,3.025 0.98199,7.825 1.33843,10.66667 0.35643,2.84166 0.96481,7.41666 1.35193,10.16666 0.38713,2.75 0.9955,7.325 1.35194,10.16667 0.35644,2.84167 0.93969,7.49167 1.29613,10.33333 0.35643,2.84167 0.96481,7.41667 1.35193,10.16667 0.38713,2.75 0.9955,7.325 1.35194,10.16667 0.35644,2.84166 0.93969,7.49166 1.29613,10.33333 0.35643,2.84167 0.96481,7.41667 1.35193,10.16667 0.79678,5.66 1.71758,12.91249 2.60275,20.5 0.33151,2.84167 0.82041,6.01222 1.08645,7.04567 l 0.4837,1.879 10.08022,-0.31895 c 5.54412,-0.17543 11.20782,-0.5291 12.58599,-0.78595 z m 5.6163,-1.7781 c -0.21281,-0.53182 -0.37079,-0.37386 -0.40277,0.40278 -0.0289,0.70277 0.12862,1.09652 0.35014,0.875 0.22153,-0.22153 0.24521,-0.79654 0.0526,-1.27778 z m 316.54459,0.28142 c 55.73334,-0.27992 101.40987,-0.57962 101.50347,-0.66601 0.0935,-0.0864 0.0935,-28.13208 0,-62.32375 l -0.17013,-62.166669 h -214.7778 c -118.12778,0 -214.99553,0.217753 -215.26166,0.483887 -0.26614,0.26614 -0.16792,0.86614 0.21824,1.333333 0.38617,0.4672 0.86826,2.949447 1.0713,5.516114 0.20306,2.566665 0.6867,7.216665 1.07478,10.333335 0.38808,3.11667 0.99188,8.21667 1.3418,11.33333 0.60026,5.34644 1.08954,9.38295 2.66667,22 0.36667,2.93334 0.96667,7.73334 1.33333,10.66667 1.57714,12.61705 2.06641,16.65357 2.66667,22 0.60026,5.34643 1.08953,9.38295 2.66667,22 0.36666,2.93334 0.94508,7.65834 1.28538,10.5 0.90716,7.57542 1.39719,9.39556 2.61844,9.72582 1.34193,0.3629 174.21137,-0.0453 311.76284,-0.73606 z m 136,-1.191 c 4.76667,-0.219 8.8738,-0.60082 9.127,-0.84848 0.60534,-0.59218 0.86034,-137.058723 0.25787,-138.033517 -0.67687,-1.095233 -33.15373,-1.047926 -34.25153,0.04987 -0.5134,0.51338 -0.8,3.14074 -0.8,7.333334 0,6.454487 -0.0193,6.533333 -1.60234,6.533333 -1.43353,0 -1.64793,0.368747 -2.03553,3.500001 -0.2382,1.925 -0.5886,30.295469 -0.77853,63.045489 l -0.3454,59.54549 10.88093,-0.36368 c 5.98447,-0.20002 14.78087,-0.54286 19.54753,-0.76187 z m 316.33337,-1.47623 c 55.55,-0.28777 101.0494,-0.59057 101.1098,-0.67287 0.061,-0.0823 0.2721,-2.02466 0.4706,-4.31632 0.3367,-3.88893 0.797,-7.42229 2.432,-18.66667 0.3598,-2.475 0.9486,-6.525 1.3085,-9 0.3599,-2.475 0.9493,-6.6 1.31,-9.16667 0.3606,-2.56667 0.9767,-6.61667 1.3691,-9 0.7338,-4.458 1.4695,-9.40039 2.6542,-17.83333 0.3735,-2.65834 0.9847,-7.00834 1.3582,-9.66667 0.3734,-2.65833 0.9734,-6.85833 1.3333,-9.33333 0.3599,-2.475 0.9437,-6.525 1.2976,-9 0.3538,-2.475 0.9643,-6.45 1.3567,-8.83334 0.3923,-2.38333 0.9769,-6.28333 1.299,-8.66667 0.3221,-2.383329 0.7886,-5.116296 1.0365,-6.073256 0.3756,-1.449546 0.1905,-1.80962 -1.109,-2.15756 -2.0014,-0.535847 -416.39427,-0.551353 -418.3932,-0.01567 l -1.5,0.40198 V 153.3622 c 0,57.72986 0.066,61.22426 1.16667,61.5159 1.42706,0.37822 164.46503,-0.0123 301.50003,-0.72224 z m 130.7879,-1.16099 c 2.8761,-0.54306 3.2589,-1.21809 3.9673,-6.99487 0.2923,-2.38333 0.8524,-6.28333 1.2448,-8.66667 0.3923,-2.38333 0.9923,-6.28333 1.3333,-8.66666 0.341,-2.38334 0.9305,-6.20834 1.31,-8.50001 0.3795,-2.29166 1.0005,-6.04166 1.38,-8.33333 0.3795,-2.29167 0.969,-6.11667 1.31,-8.5 0.341,-2.38333 0.941,-6.28333 1.3333,-8.66667 0.3924,-2.38333 0.9924,-6.28333 1.3334,-8.66666 0.341,-2.38334 0.941,-6.28334 1.3333,-8.66667 0.3923,-2.38333 0.9923,-6.28333 1.3333,-8.66667 0.341,-2.38333 0.941,-6.28333 1.3334,-8.66666 0.3923,-2.38334 0.9923,-6.28334 1.3333,-8.66667 0.341,-2.38334 0.9471,-6.28334 1.3471,-8.66667 0.3999,-2.38333 0.8874,-6.064632 1.0832,-8.180659 l 0.3562,-3.847327 -13.549,0.18066 -13.5491,0.18066 -0.4979,2.666667 c -0.2738,1.466667 -0.8061,4.766667 -1.1827,7.333329 -0.3767,2.56667 -0.9921,6.61667 -1.3676,9.00001 -0.6413,4.06952 -0.9826,6.39679 -2.6402,18 -0.3667,2.56666 -0.9667,6.76666 -1.3333,9.33333 -0.3667,2.56667 -0.9667,6.76667 -1.3334,9.33333 -0.3666,2.56667 -0.9666,6.76667 -1.3333,9.33334 -0.9234,6.46357 -1.8832,12.88254 -2.6915,18 -0.6426,4.06853 -0.9805,6.37084 -2.6418,18 -0.3667,2.56667 -0.9571,6.69167 -1.312,9.16667 -0.355,2.475 -0.9022,6.3945 -1.2162,8.71 l -0.5707,4.21001 10.7161,-0.31416 c 5.8938,-0.17279 11.8207,-0.52273 13.1707,-0.77765 z m 138.4582,-0.0909 4.1085,-0.42941 -0.383,-38.40393 C 1487.4277,152.94844 1487.198,122.31667 1487.1277,106 L 1487,76.333337 l -17.4131,-0.177567 -17.413,-0.177567 -0.4002,2.510901 c -0.6464,4.055206 -0.431,81.577646 0.2348,84.549086 0.3342,1.4913 0.6442,12.44279 0.6888,24.33664 0.045,11.89385 0.2379,22.43397 0.4294,23.42249 0.2895,1.49382 0.7585,1.84076 2.7774,2.0546 4.3226,0.45783 23.7804,0.49396 28.0087,0.052 z M 335.1665,120.50001 c -0.0991,-16.95834 -0.18015,-3.08334 -0.18015,30.83333 0,33.91667 0.0811,47.79167 0.18015,30.83333 0.0991,-16.95833 0.0991,-44.70833 0,-61.66666 z m 984.9316,89.40644 c -0.4567,-1.58704 -0.662,-1.81852 -0.7046,-0.7943 -0.067,1.62145 0.6168,3.76639 1.0602,3.32305 0.159,-0.15894 0,-1.29688 -0.3556,-2.52875 z m 123.7352,2.34003 1.5,-0.40198 V 152.00001 92.155511 l -1.5,-0.40198 c -1.9938,-0.534347 -68.2688,-0.38236 -70.8333,0.162433 -1.9077,0.405254 -2.0217,0.624807 -2.4693,4.75446 -0.2582,2.381267 -0.7937,6.279576 -1.19,8.662916 -0.3964,2.38333 -0.9997,6.28333 -1.3407,8.66667 -0.341,2.38333 -0.941,6.28333 -1.3333,8.66666 -0.3924,2.38334 -0.9924,6.28334 -1.3334,8.66667 -0.341,2.38333 -0.941,6.28333 -1.3333,8.66667 -0.3923,2.38333 -0.9923,6.28333 -1.3333,8.66666 -0.341,2.38334 -0.941,6.28334 -1.3334,8.66667 -0.3923,2.38333 -0.9923,6.28333 -1.3333,8.66667 -0.341,2.38333 -0.9305,6.20833 -1.31,8.5 -0.3795,2.29166 -1.0005,6.04166 -1.38,8.33333 -0.3795,2.29167 -0.969,6.11667 -1.31,8.5 -0.341,2.38334 -0.9437,6.28334 -1.3393,8.66667 -1.1413,6.87535 -1.4877,10.62066 -1.0804,11.68215 0.328,0.85467 6.2056,0.98332 44.5654,0.97542 24.3032,-0.005 44.8626,-0.19 45.6876,-0.4111 z m -999.21349,-5.0798 c 0.0258,-0.275 -0.25314,-0.5 -0.61981,-0.5 -0.36667,0 -0.64558,0.825 -0.61981,1.83333 0.0415,1.62456 0.1121,1.6815 0.61981,0.5 0.31513,-0.73333 0.59404,-1.55833 0.61981,-1.83333 z M 1449.8319,178.83334 c -0.112,-5.40833 -0.2038,-0.98333 -0.2038,9.83334 0,10.81666 0.092,15.24166 0.2038,9.83333 0.112,-5.40833 0.112,-14.25833 0,-19.66667 z m -128.4004,21.73978 c -0.4568,-1.58704 -0.6621,-1.81852 -0.7047,-0.7943 -0.067,1.62145 0.6169,3.76638 1.0602,3.32305 0.159,-0.15894 0,-1.29688 -0.3555,-2.52875 z m -878.14503,-4.07311 c 0.0258,-0.275 -0.25314,-0.5 -0.6198,-0.5 -0.36667,0 -0.64558,0.825 -0.61981,1.83333 0.0415,1.62456 0.1121,1.6815 0.61981,0.5 0.31512,-0.73333 0.59404,-1.55833 0.6198,-1.83333 z m 879.47833,-5.26023 c -0.4567,-1.58704 -0.6621,-1.81852 -0.7047,-0.7943 -0.067,1.62146 0.6169,3.76639 1.0602,3.32306 0.159,-0.15894 0,-1.29688 -0.3555,-2.52876 z m -881.12523,-5.15896 c 0.15044,-1.18873 -0.003,-1.93485 -0.3535,-1.71826 -0.34067,0.21054 -0.6194,1.3151 -0.6194,2.45457 0,2.56483 0.61391,2.10021 0.9729,-0.73631 z m 882.45853,-4.17437 c -0.4567,-1.58704 -0.662,-1.81852 -0.7046,-0.7943 -0.067,1.62145 0.6168,3.76639 1.0602,3.32305 0.159,-0.15894 0,-1.29688 -0.3556,-2.52875 z m -883.47829,-8.07311 c 0.0258,-0.275 -0.25314,-0.5 -0.61981,-0.5 -0.36667,0 -0.64558,0.825 -0.61981,1.83333 0.0415,1.62456 0.1121,1.6815 0.61981,0.5 0.31513,-0.73333 0.59404,-1.55833 0.61981,-1.83333 z m 884.73069,-1.17119 c -0.346,-1.47222 -0.5724,-1.79713 -0.6156,-0.88334 -0.069,1.45261 0.5898,3.78533 0.9631,3.4121 0.1099,-0.10997 -0.047,-1.24791 -0.3475,-2.52876 z m 1.4143,-8.08904 -0.6445,-2.23977 -0.06,2.05555 c -0.033,1.13056 0.1398,2.25556 0.3843,2.5 0.8379,0.8379 0.9645,-0.0774 0.3203,-2.31578 z m -887.47833,-1.40644 c 0.0258,-0.275 -0.25314,-0.5 -0.6198,-0.5 -0.36667,0 -0.64558,0.825 -0.61981,1.83334 0.0415,1.62456 0.1121,1.6815 0.61981,0.5 0.31512,-0.73334 0.59404,-1.55834 0.6198,-1.83334 z m 888.81163,-7.92689 c -0.4567,-1.58704 -0.662,-1.81852 -0.7046,-0.7943 -0.067,1.62145 0.6168,3.76639 1.0602,3.32305 0.159,-0.15894 0,-1.29688 -0.3556,-2.52875 z m -890.14496,-2.73977 c 0.0258,-0.275 -0.25314,-0.5 -0.61981,-0.5 -0.36666,0 -0.64558,0.825 -0.6198,1.83333 0.0415,1.62456 0.1121,1.6815 0.6198,0.5 0.31513,-0.73333 0.59404,-1.55833 0.61981,-1.83333 z m 891.47836,-6.59356 c -0.4568,-1.58704 -0.6621,-1.81852 -0.7047,-0.7943 -0.067,1.62145 0.6169,3.76638 1.0602,3.32305 0.159,-0.15894 0,-1.29688 -0.3555,-2.52875 z m -893.12527,-3.82563 c 0.15044,-1.18873 -0.003,-1.93485 -0.3535,-1.71827 -0.34066,0.21055 -0.6194,1.31511 -0.6194,2.45458 0,2.56483 0.61392,2.10021 0.9729,-0.73631 z m 894.45857,-5.50771 c -0.4567,-1.58704 -0.6621,-1.81852 -0.7047,-0.7943 -0.067,1.62146 0.6169,3.76639 1.0602,3.32306 0.159,-0.15894 0,-1.29688 -0.3555,-2.52876 z M 435.15252,130.69973 C 435.02742,129.03894 434,129.67392 434,131.41203 c 0,0.73333 0.28091,1.15972 0.62425,0.94753 0.34333,-0.21219 0.58106,-0.95911 0.52827,-1.65983 z m 896.94558,-3.45995 c -0.4567,-1.58704 -0.662,-1.81852 -0.7046,-0.7943 -0.067,1.62145 0.6168,3.76639 1.0602,3.32305 0.159,-0.15894 0,-1.29688 -0.3556,-2.52875 z m -898.14496,-8.07311 c 0.0258,-0.275 -0.25314,-0.5 -0.61981,-0.5 -0.36666,0 -0.64558,0.825 -0.6198,1.83334 0.0415,1.62456 0.1121,1.6815 0.6198,0.5 0.31513,-0.73334 0.59404,-1.55834 0.61981,-1.83334 z m 899.47836,-1.26022 c -0.4568,-1.58704 -0.6621,-1.81852 -0.7047,-0.7943 -0.067,1.62145 0.6169,3.76638 1.0602,3.32305 0.159,-0.15894 0,-1.29688 -0.3555,-2.52875 z m 115.7312,-22.073112 c -0.1236,-3.025 -0.2246,-0.55 -0.2246,5.500002 0,6.05 0.101,8.525 0.2246,5.5 0.1235,-3.025 0.1235,-7.975002 0,-11.000002 z M 432.30623,108.74748 c 0.15044,-1.18873 -0.003,-1.93485 -0.3535,-1.71826 -0.34066,0.21054 -0.6194,1.3151 -0.6194,2.45457 0,2.56484 0.61392,2.10022 0.9729,-0.73631 z m 902.37767,-0.0853 c -0.3461,-1.47222 -0.5725,-1.79713 -0.6156,-0.88334 -0.069,1.45261 0.5898,3.78533 0.963,3.4121 0.11,-0.10997 -0.047,-1.24791 -0.3474,-2.52876 z m 1.4142,-8.08904 c -0.4567,-1.587039 -0.662,-1.818519 -0.7046,-0.794299 -0.067,1.621449 0.6168,3.766389 1.0602,3.323049 0.159,-0.15894 0,-1.29688 -0.3556,-2.52875 z M 431.15252,97.366398 C 431.02742,95.705604 430,96.340584 430,98.078691 c 0,0.733333 0.28091,1.159727 0.62425,0.947534 0.34333,-0.212194 0.58106,-0.959114 0.52827,-1.659827 z m 906.23738,-4.769607 c -0.3513,-0.878233 -0.6578,-1.24632 -0.681,-0.81798 -0.057,1.040413 0.7202,3.01434 1.0544,2.680067 0.146,-0.145914 -0.022,-0.983854 -0.3734,-1.862087 z M 871.12867,86.846024 c -0.16907,-0.648647 -0.31847,-0.279353 -0.33207,0.820647 -0.0133,1.1 0.12473,1.630706 0.30733,1.179353 0.18267,-0.451353 0.19374,-1.351353 0.0247,-2 z m -1.43347,-0.512687 c 0.16707,-0.733333 0.379,-3.883333 0.47093,-7 l 0.1672,-5.666667 H 890.66667 911 l 0.33333,6.447587 c 0.18334,3.546167 0.4994,6.612247 0.7024,6.813507 0.54654,0.541907 529.31827,0.598693 531.46427,0.05707 1.4707,-0.371174 1.8333,-0.84408 1.8333,-2.39044 0,-1.200427 -0.3492,-1.927727 -0.9258,-1.927727 -1.1661,0 -1.9426,-3.9132 -1.3759,-6.934101 0.3063,-1.632573 0.8281,-2.332553 1.8635,-2.5 0.791,-0.127913 10.9746,-0.08257 22.6302,0.100767 17.8611,0.28094 21.2912,0.490513 21.8232,1.333333 0.3471,0.55 0.6357,3.625001 0.6413,6.833334 l 0.01,5.833334 37.1667,-0.0073 c 20.4416,-0.004 38.2758,-0.190726 39.6316,-0.414866 2.8582,-0.472554 3.0835,-1.06666 3.8858,-10.244461 0.2725,-3.116667 0.7042,-6.300353 0.9594,-7.07486 0.3602,-1.093234 0.1165,-1.538627 -1.0898,-1.9914 -1.7558,-0.65908 -1363.15159,-1.241672 -1371.58109,-0.586954 l -5.36072,0.416367 -0.11799,4.785094 c -0.0649,2.631793 0.25222,6.872693 0.70469,9.424207 0.71747,4.04582 1.03448,4.698093 2.47872,5.100213 0.91081,0.2536 23.29893,0.491 49.75136,0.527547 43.28073,0.0598 48.13586,-0.03913 48.5,-0.988073 0.22257,-0.579987 0.40466,-3.562281 0.40466,-6.627321 0,-3.06504 0.23194,-5.71614 0.51541,-5.891333 0.42405,-0.26208 38.44933,-0.690747 43.25933,-0.487674 2.05228,0.08665 2.61673,4.054321 1.29618,9.111227 -0.55911,2.141081 -0.85404,4.055641 -0.6554,4.254581 0.78824,0.789466 69.195,1.02838 294.44686,1.02838 234.65002,0 235.19642,-0.0033 235.49949,-1.333334 z M 334.90331,84.666671 c 0.30123,-1.641614 0.23383,-2.036881 -0.22736,-1.333334 -0.36054,0.55 -0.66013,1.725 -0.66574,2.611114 -0.0135,2.139746 0.3655,1.597413 0.8931,-1.27778 z m 1.53821,-2.166667 c -0.18494,-0.458334 -0.33626,-0.08333 -0.33626,0.833333 0,0.916667 0.15132,1.291667 0.33626,0.833333 0.18494,-0.458333 0.18494,-1.208333 0,-1.666666 z m 0.66667,-4 c -0.18494,-0.458334 -0.33626,-0.08333 -0.33626,0.833333 0,0.916667 0.15132,1.291667 0.33626,0.833333 0.18494,-0.458333 0.18494,-1.208333 0,-1.666666 z m 1111.08851,0 c -0.1936,-1.008334 -0.6172,-1.833334 -0.9411,-1.833334 -0.9146,0 -0.6935,3.1849 0.2444,3.51984 1.1087,0.395987 1.1006,0.41576 0.6967,-1.686506 z M 298.71788,75.118963 c 1.01261,-0.230393 0.96638,-0.27662 -0.20766,-0.20766 -1.01147,0.0594 -1.53186,0.529027 -1.57574,1.422034 -0.0457,0.930527 0.017,0.99326 0.20766,0.20766 0.15025,-0.61912 0.85933,-1.259034 1.57574,-1.422034 z m 574.66665,0 c 1.0126,-0.230393 0.9664,-0.27662 -0.20766,-0.20766 -1.01147,0.0594 -1.53187,0.529027 -1.57574,1.422034 -0.046,0.930527 0.0173,0.99326 0.20767,0.20766 0.15027,-0.61912 0.85933,-1.259034 1.57573,-1.422034 z m 36.36594,0.525714 c -0.2064,-0.537907 -1.05974,-0.937154 -1.8962,-0.88722 l -1.52094,0.09079 1.5,0.288914 c 0.9854,0.189806 1.51807,0.787573 1.5526,1.742546 0.0287,0.799501 0.20727,1.068734 0.39627,0.598307 0.18893,-0.470426 0.17467,-1.295427 -0.032,-1.833333 z m 578.66663,0 c -0.2064,-0.537907 -1.0597,-0.937154 -1.8962,-0.88722 l -1.5209,0.09079 1.5,0.288914 c 0.9854,0.189806 1.5181,0.787573 1.5526,1.742546 0.029,0.799501 0.2073,1.068734 0.3963,0.598307 0.1889,-0.470426 0.1746,-1.295427 -0.032,-1.833333 z M 225.5,64.891816 c -0.45833,-0.184942 -1.20833,-0.184942 -1.66667,0 -0.45833,0.184942 -0.0833,0.336257 0.83334,0.336257 0.91666,0 1.29166,-0.151315 0.83333,-0.336257 z m 1305.3333,0 c -0.4583,-0.184942 -1.2083,-0.184942 -1.6666,0 -0.4584,0.184942 -0.083,0.336257 0.8333,0.336257 0.9167,0 1.2917,-0.151315 0.8333,-0.336257 z m -477.1666,-1.910481 c -3.9588,-1.304706 -511.3746,-1.304706 -515.33337,0 -2.21627,0.730425 41.30299,0.878863 257.66667,0.878863 216.3637,0 259.8829,-0.148438 257.6667,-0.878863 z M 467.83333,62.166706 c -36.575,-0.09523 -96.425,-0.09523 -133,0 -36.575,0.09523 -6.65,0.173143 66.5,0.173143 73.15,0 103.075,-0.07791 66.5,-0.173143 z m 847.49497,-0.33337 c -0.01,-0.580082 -1.4218,-0.854379 -4.6667,-0.902585 -2.5639,-0.03809 -4.6616,0.186122 -4.6616,0.498246 0,0.312124 -55.875,0.644081 -124.1667,0.737683 l -124.1666,0.170186 128.8333,0.164902 c 102.7123,0.131468 128.8323,-0.0041 128.8283,-0.668432 z m 169.505,0.391813 c -0.4583,-0.184942 -1.2083,-0.184942 -1.6666,0 -0.4584,0.184942 -0.083,0.336257 0.8333,0.336257 0.9167,0 1.2917,-0.151315 0.8333,-0.336257 z"
       id="path314" />
  </g>
</svg>
