<?xml version="1.0" encoding="UTF-8" standalone="no"?>
<!-- Created with Inkscape (http://www.inkscape.org/) -->

<svg
   version="1.1"
   id="svg41"
   width="1888.6667"
   height="508"
   viewBox="0 0 1888.6667 508"
   sodipodi:docname="workbench.svg"
   inkscape:version="1.1.2 (b8e25be8, 2022-02-05)"
   xmlns:inkscape="http://www.inkscape.org/namespaces/inkscape"
   xmlns:sodipodi="http://sodipodi.sourceforge.net/DTD/sodipodi-0.dtd"
   xmlns="http://www.w3.org/2000/svg"
   xmlns:svg="http://www.w3.org/2000/svg">
  <defs
     id="defs45" />
  <sodipodi:namedview
     id="namedview43"
     pagecolor="#ffffff"
     bordercolor="#111111"
     borderopacity="1"
     inkscape:pageshadow="0"
     inkscape:pageopacity="0"
     inkscape:pagecheckerboard="1"
     showgrid="false"
     inkscape:zoom="0.60518882"
     inkscape:cx="517.19396"
     inkscape:cy="254.46604"
     inkscape:window-width="1920"
     inkscape:window-height="1056"
     inkscape:window-x="0"
     inkscape:window-y="24"
     inkscape:window-maximized="0"
     inkscape:current-layer="g47" />
  <g
     inkscape:groupmode="layer"
     inkscape:label="Image"
     id="g47">
    <path
       style="fill:#000000;stroke-width:0.666667"
       d="m 49.466668,447.86667 c -0.44,-0.44 -0.8,-1.14391 -0.8,-1.56424 0,-1.01658 1.929268,-4.84669 2.672799,-5.30622 0.323602,-0.2 1.820842,-2.89829 3.327201,-5.99621 1.506358,-3.09792 3.006358,-5.79792 3.333333,-6 0.326975,-0.20208 1.826975,-2.90208 3.333333,-6 1.506359,-3.09792 3.006359,-5.79792 3.333334,-6 0.326974,-0.20208 1.826975,-2.90208 3.333333,-6 1.50636,-3.09792 3.00636,-5.79792 3.333334,-6 0.326973,-0.20208 1.826973,-2.90208 3.333333,-6 1.50636,-3.09792 3.00636,-5.79792 3.333333,-6 0.326974,-0.20208 1.826974,-2.90208 3.333334,-6 1.50636,-3.09792 3.012846,-5.80193 3.347746,-6.00891 0.334907,-0.20698 1.528421,-2.30297 2.652254,-4.65776 1.123833,-2.35478 2.317347,-4.45077 2.652253,-4.65776 0.3349,-0.20698 1.841387,-2.91098 3.347747,-6.0089 1.50636,-3.09792 3.00636,-5.79792 3.333333,-6 0.326974,-0.20208 1.826974,-2.90208 3.333332,-6 1.50636,-3.09792 3.0036,-5.79622 3.3272,-5.99621 0.73026,-0.45133 2.6728,-4.28187 2.6728,-5.27055 0,-0.40072 3.75896,-8.25446 8.35324,-17.45276 5.62592,-11.26376 9.10857,-17.45627 10.66667,-18.96644 1.27238,-1.23324 2.31343,-2.58112 2.31343,-2.99528 0,-0.41416 0.76746,-1.474 1.70547,-2.35522 0.93801,-0.88122 2.59776,-3.47183 3.68833,-5.75692 1.09058,-2.2851 2.25688,-4.32406 2.59178,-4.53105 0.3349,-0.20698 1.84139,-2.91099 3.34775,-6.00891 1.50636,-3.09792 3.0036,-5.79621 3.3272,-5.9962 0.66607,-0.41166 2.6728,-4.24538 2.6728,-5.10622 0,-0.31034 -5.04771,-0.56424 -11.21713,-0.56424 -10.78207,0 -11.27027,-0.0582 -12.58756,-1.5 -0.75374,-0.825 -1.56739,-2.55 -1.80811,-3.83334 -1.25707,-6.70165 -1.84813,-9.35086 -3.79277,-17 -0.37287,-1.46666 -0.94036,-4.01666 -1.2611,-5.66666 -0.55559,-2.85824 -1.23166,-5.73802 -2.7389,-11.66667 -0.37287,-1.46667 -0.94036,-4.01667 -1.2611,-5.66667 -0.32073,-1.65 -0.93438,-4.35 -1.36366,-6 -1.24115,-4.77055 -1.53968,-10.5782 -0.60184,-11.70824 0.91142,-1.09818 0.6902,-1.47417 -1.51386,-2.57302 -0.92797,-0.46264 -1.68357,-1.63616 -1.97499,-3.06736 -0.96421,-4.73534 -1.72843,-7.70134 -2.44385,-9.48471 -0.69502,-1.73251 -0.97018,-1.83333 -5.003665,-1.83333 -2.61102,0 -4.529627,-0.32356 -4.94152,-0.83334 -1.29812,-1.60664 -1.661673,-6.99224 -1.742133,-25.80774 l -0.08115,-18.97442 4.933807,-2.52558 c 2.713593,-1.38908 5.263601,-2.531 5.666671,-2.53762 0.40307,-0.007 4.33223,-1.80662 8.73147,-4 4.39924,-2.19338 8.2443,-3.98797 8.54459,-3.98797 0.92025,0 13.05417,-6.01521 13.46066,-6.67291 0.20976,-0.3394 2.30802,-1.53659 4.66281,-2.66042 2.35478,-1.12384 4.44546,-2.30875 4.64594,-2.63314 0.20049,-0.3244 2.68717,-1.71656 5.52596,-3.0937 2.83878,-1.37715 5.66772,-2.93155 6.28652,-3.45423 0.6188,-0.52268 4.35787,-2.57076 8.30906,-4.55129 6.4102,-3.21312 7.63536,-3.60098 11.37491,-3.60098 h 4.19094 v -2.58504 c 0,-2.96194 0.52511,-3.49626 4.66667,-4.74861 1.65,-0.49894 4.2,-1.4279 5.66666,-2.064353 1.46667,-0.63646 4.61142,-1.826574 6.98833,-2.644707 2.37691,-0.818127 5.31103,-2.043207 6.52027,-2.722393 1.20925,-0.679194 2.50399,-1.234894 2.87722,-1.234894 0.37322,0 1.92045,-0.6 3.43828,-1.333333 1.51782,-0.733333 3.0066,-1.333333 3.30839,-1.333333 0.30179,0 1.82044,-0.57492 3.37478,-1.2776 1.55433,-0.702687 4.77607,-1.93762 7.1594,-2.744314 2.38333,-0.806686 4.61833,-1.731766 4.96667,-2.055726 C 225.98167,82.26506 226.65994,82 227.1406,82 c 0.48066,0 2.14566,-0.57844 3.7,-1.285413 1.55434,-0.70698 5.67607,-2.237554 9.1594,-3.401274 3.48334,-1.163726 6.61834,-2.385286 6.96667,-2.714586 C 247.315,74.269427 256.69942,74 267.82092,74 c 18.65673,0 20.25279,-0.09025 20.63269,-1.166667 0.6682,-1.893293 3.01922,-4.166666 4.309,-4.166666 0.65826,0 2.26509,-0.6 3.57073,-1.333334 C 297.63898,66.6 299.2804,66 299.98094,66 c 0.70054,0 1.45912,-0.3 1.68573,-0.666667 0.22662,-0.366666 0.9852,-0.666666 1.68574,-0.666666 0.70054,0 2.34196,-0.6 3.6476,-1.333334 C 308.30565,62.6 309.80565,62 310.33334,62 c 0.52769,0 2.02769,-0.6 3.33333,-1.333333 1.30564,-0.733334 2.80564,-1.333334 3.33334,-1.333334 0.52769,0 2.02769,-0.6 3.33333,-1.333333 1.30564,-0.733333 2.94706,-1.333333 3.6476,-1.333333 0.70054,0 1.45912,-0.3 1.68573,-0.666667 0.22662,-0.366667 0.9852,-0.666667 1.68574,-0.666667 0.70054,0 2.34196,-0.6 3.6476,-1.333333 1.30564,-0.733333 2.94706,-1.333333 3.6476,-1.333333 0.70054,0 1.45912,-0.3 1.68573,-0.666667 0.22661,-0.366667 0.98519,-0.666667 1.68573,-0.666667 0.70054,0 2.34196,-0.6 3.6476,-1.333333 1.30564,-0.733333 2.80564,-1.333333 3.33334,-1.333333 0.52769,0 2.0284,-0.6004 3.33491,-1.334223 2.37156,-1.332024 3.19351,-1.333677 498.85363,-1.003489 561.37775,0.373967 695.43695,0.696479 696.41585,1.675398 0.3642,0.364273 1.3346,0.662314 2.1563,0.662314 0.8217,0 1.6794,0.3 1.906,0.666666 0.2266,0.366667 1.1266,0.666667 2,0.666667 0.8734,0 1.7734,0.3 2,0.666667 0.2266,0.366666 1.1418,0.666666 2.0337,0.666666 0.8996,0 1.9924,0.59363 2.4544,1.333334 0.5889,0.943106 1.5546,1.333333 3.2996,1.333333 1.3568,0 2.6524,0.3 2.879,0.666667 0.2266,0.366666 0.9852,0.666666 1.6857,0.666666 0.7005,0 2.3419,0.6 3.6476,1.333334 C 1568.9724,57.4 1570.6138,58 1571.3143,58 c 0.7005,0 1.4591,0.3 1.6857,0.666667 0.2266,0.366666 1.1266,0.666666 2,0.666666 0.8734,0 1.7734,0.3 2,0.666667 0.2266,0.366667 0.9852,0.666667 1.6858,0.666667 0.7005,0 2.3419,0.6 3.6476,1.333333 1.3056,0.733333 2.947,1.333333 3.6476,1.333333 0.7005,0 1.4591,0.3 1.6857,0.666667 0.2266,0.366667 1.1266,0.666667 2,0.666667 0.8734,0 1.7734,0.3 2,0.666666 C 1591.8933,65.7 1592.6519,66 1593.3524,66 c 0.7006,0 2.342,0.6 3.6476,1.333333 1.3057,0.733334 2.8898,1.35526 3.5203,1.38206 1.9997,0.08499 5.1384,2.330874 5.3595,3.834967 0.2128,1.44864 0.2258,1.44964 18.7939,1.44964 11.6682,0 18.7343,0.248027 18.993,0.666667 0.2266,0.366666 1.1266,0.666666 2,0.666666 0.8734,0 1.7734,0.3 2,0.666667 0.2266,0.366667 0.9852,0.666667 1.6857,0.666667 0.7006,0 2.342,0.6 3.6476,1.333333 1.3057,0.733333 2.7843,1.333333 3.286,1.333333 0.5016,0 2.6229,0.9 4.714,2 2.0912,1.1 4.2125,2 4.7141,2 0.5017,0 1.9803,0.6 3.2859,1.333334 C 1670.3057,85.4 1671.8057,86 1672.3334,86 c 0.5276,0 2.0276,0.6 3.3333,1.333333 1.3057,0.733334 2.8057,1.333334 3.3333,1.333334 0.5277,0 2.0277,0.6 3.3334,1.333333 1.3056,0.733333 2.8056,1.333333 3.3333,1.333333 0.5277,0 2.0277,0.6 3.3333,1.333334 C 1690.3057,93.4 1691.7843,94 1692.286,94 c 0.5016,0 2.6229,0.9 4.714,2 2.0912,1.1 4.3539,2 5.0284,2 0.6744,0 1.4117,0.3 1.6383,0.666667 0.2266,0.366666 0.9852,0.666666 1.6857,0.666666 0.7006,0 2.342,0.6 3.6476,1.333337 1.3057,0.73333 2.9048,1.33333 3.5536,1.33333 0.6489,0 1.5398,0.36 1.9798,0.8 0.972,0.97199 1.0604,5.33955 0.127,6.27296 -0.7656,0.76555 3.9798,3.59371 6.03,3.59371 0.677,0 1.4164,0.3 1.643,0.66666 0.2266,0.36667 0.9852,0.66667 1.6857,0.66667 0.7005,0 2.3419,0.6 3.6476,1.33333 1.3057,0.73334 2.9471,1.33334 3.6476,1.33334 0.7005,0 1.4591,0.3 1.6857,0.66666 0.2266,0.36667 0.9852,0.66667 1.6858,0.66667 0.7005,0 2.3419,0.6 3.6476,1.33333 1.3056,0.73334 2.947,1.33334 3.6476,1.33334 0.7005,0 1.4591,0.3 1.6857,0.66666 0.2266,0.36667 0.9852,0.66667 1.6857,0.66667 0.7006,0 2.342,0.6 3.6476,1.33333 1.3057,0.73334 2.9471,1.33334 3.6476,1.33334 0.7006,0 1.4592,0.3 1.6858,0.66666 0.2266,0.36667 0.9852,0.66667 1.6857,0.66667 0.7005,0 2.3419,0.6 3.6476,1.33333 1.3057,0.73334 2.8057,1.33334 3.3333,1.33334 0.5277,0 2.0277,0.6 3.3334,1.33333 1.3056,0.73333 2.947,1.33333 3.6476,1.33333 0.7005,0 1.4591,0.3 1.6857,0.66667 0.2266,0.36667 1.1418,0.66667 2.0337,0.66667 0.8996,0 1.9924,0.59362 2.4544,1.33333 0.5889,0.94311 1.5546,1.33333 3.2996,1.33333 1.3568,0 2.6524,0.3 2.879,0.66667 0.2266,0.36667 0.9852,0.66667 1.6857,0.66667 0.7005,0 2.3419,0.6 3.6476,1.33333 1.3057,0.73333 2.9471,1.33333 3.6476,1.33333 0.7005,0 1.4591,0.3 1.6857,0.66667 0.2266,0.36667 0.9482,0.66667 1.6036,0.66667 1.6288,0 4.928,1.71073 6.3682,3.30208 0.8871,0.98026 1.0708,1.86646 0.7265,3.50495 -0.2535,1.20613 -0.7393,4.51797 -1.0795,7.35963 -0.6116,5.10715 -1.2966,10.63136 -2.6452,21.33334 -0.3812,3.025 -0.8542,7.65742 -1.0513,10.29428 -0.197,2.63686 -0.7316,5.10416 -1.1879,5.48292 -0.4749,0.39406 -5.5147,0.76723 -11.7821,0.87238 L 1773,193 l 0.1816,3 c 0.1,1.65 0.4749,6.225 0.8334,10.16667 0.3584,3.94166 0.9517,10.46666 1.3184,14.5 0.3666,4.03333 0.96,10.55833 1.3185,14.5 0.3585,3.94166 0.8365,9.06758 1.0621,11.39091 0.3681,3.79 0.254,4.39056 -1.1097,5.84216 -1.1727,1.24835 -1.3392,1.79864 -0.7288,2.40909 0.9219,0.92188 1.0583,6.01379 0.2064,7.70022 -0.8943,1.77018 -2.0761,5.76658 -2.1306,7.20495 -0.027,0.7073 -0.5752,2.186 -1.2187,3.286 -1.1305,1.93256 -1.3536,2.00653 -6.6179,2.19363 -2.9964,0.1065 -5.448,0.42334 -5.448,0.70411 0,0.28077 2.4,5.27679 5.3333,11.10226 2.9334,5.82547 5.3334,10.92361 5.3334,11.32918 0,0.40558 2.7,6.10745 6,12.67082 3.3,6.56337 6,12.2773 6,12.69761 0,0.98279 1.9186,4.84006 2.6244,5.27628 0.297,0.18354 6.1809,11.6645 13.0754,25.51325 6.8944,13.84874 12.962,25.68581 13.4834,26.30461 0.5215,0.6188 2.5686,4.35788 4.5491,8.30906 2.9473,5.87972 3.601,7.80131 3.601,10.58436 0,2.88482 0.7075,4.80254 4.6667,12.64816 2.5666,5.08628 4.6666,9.58388 4.6666,9.99467 0,0.41079 2.4,5.51319 5.3334,11.33867 2.9333,5.82547 5.3333,11.22362 5.3333,11.99588 0,2.95313 -0.4163,3.00412 -24.5279,3.00412 -22.7566,0 -22.9424,-0.0112 -24.8718,-1.5 -2.6754,-2.06449 -6.714,-5.11364 -9.9336,-7.5 -1.4842,-1.1 -3.8842,-2.9 -5.3334,-4 -1.4492,-1.1 -3.8492,-2.9 -5.3333,-4 -1.4841,-1.1 -3.8841,-2.9 -5.3333,-4 -1.4492,-1.1 -3.8627,-2.9 -5.3632,-4 -1.5006,-1.1 -3.8691,-2.975 -5.2634,-4.16667 -1.3942,-1.19167 -2.8176,-2.16667 -3.1628,-2.16667 -0.3453,0 -1.4901,-0.9 -2.544,-2 -1.0538,-1.1 -2.2538,-2 -2.6666,-2 -0.4128,0 -1.6128,-0.9 -2.6667,-2 -1.0539,-1.1 -2.2475,-2 -2.6526,-2 -0.4051,0 -1.949,-1.275 -3.431,-2.83333 -1.9921,-2.09463 -5.9593,-9.39471 -15.2169,-28 -6.8872,-13.84167 -12.881,-25.16667 -13.3195,-25.16667 -0.4385,0 -1.6595,-0.9 -2.7133,-2 -1.0539,-1.1 -2.2539,-2 -2.6667,-2 -0.4128,0 -1.6128,-0.9 -2.6667,-2 -1.0538,-1.1 -2.2538,-2 -2.6666,-2 -0.4128,0 -1.6128,-0.9 -2.6667,-2 -1.0539,-1.1 -2.2539,-2 -2.6667,-2 -0.4128,0 -1.6128,-0.9 -2.6666,-2 -1.0539,-1.1 -2.2539,-2 -2.6667,-2 -0.4128,0 -1.6128,-0.9 -2.6667,-2 -1.0538,-1.1 -2.2538,-2 -2.6666,-2 -0.4128,0 -1.6128,-0.9 -2.6667,-2 -1.0539,-1.1 -2.2539,-2 -2.6667,-2 -0.4128,0 -1.6128,-0.9 -2.6666,-2 -1.0539,-1.1 -2.2635,-2 -2.6881,-2 -0.4246,0 -1.3149,-0.6 -1.9786,-1.33333 -0.6637,-0.73333 -1.554,-1.33333 -1.9786,-1.33333 -0.4246,0 -1.6342,-0.9 -2.6881,-2 -1.0538,-1.1 -2.2538,-2 -2.6666,-2 -0.4128,0 -1.6128,-0.9 -2.6667,-2 -1.0539,-1.1 -2.2539,-2 -2.6667,-2 -0.4128,0 -1.6128,-0.9 -2.6666,-2 -1.0539,-1.1 -2.2208,-2 -2.593,-2 -0.3723,0 -1.6492,-0.94237 -2.8375,-2.09415 -1.8702,-1.81266 -2.1101,-1.90087 -1.7846,-0.65628 0.2068,0.79083 0.6398,1.6009 0.9622,1.80016 0.8625,0.53301 0.7135,3.88968 -0.2138,4.81693 -0.5801,0.58006 -5.4366,0.8 -17.6647,0.8 h -16.8648 L 1610.7545,313 c -1.4205,-1.28333 -2.8653,-2.33333 -3.2105,-2.33333 -0.3453,0 -1.4901,-0.9 -2.544,-2 -1.0538,-1.1 -2.2538,-2 -2.6666,-2 -0.4128,0 -1.6128,-0.9 -2.6667,-2 -1.0539,-1.1 -2.2539,-2 -2.6667,-2 -0.4128,0 -1.6128,-0.9 -2.6666,-2 -1.0539,-1.1 -2.2539,-2 -2.6667,-2 -0.4128,0 -1.6128,-0.9 -2.6667,-2 -1.0538,-1.1 -2.2538,-2 -2.6666,-2 -0.4128,0 -1.6128,-0.9 -2.6667,-2 -1.0539,-1.1 -2.2539,-2 -2.6667,-2 -1.469,0 -4.4886,-3.94093 -7.225,-9.42957 l -2.7771,-5.57043 -7.6656,-0.55526 c -4.2161,-0.30539 -197.1156,-0.8301 -428.6656,-1.166 -231.55002,-0.33592 -509.65002,-0.75704 -618.00002,-0.93582 -108.35001,-0.1788 -197.30727,-0.10409 -197.68281,0.166 -0.37554,0.27009 -2.00448,3.19108 -3.61987,6.49108 -2.77453,5.66794 -7.42512,11.66666 -9.04474,11.66666 -0.40505,0 -1.59872,0.9 -2.65259,2 -1.05386,1.1 -2.2491,2 -2.65609,2 -0.40699,0 -1.91175,1.2 -3.34391,2.66667 -1.43216,1.46667 -2.93692,2.66667 -3.3439,2.66667 -0.40699,0 -1.60223,0.9 -2.6561,2 -1.05386,1.1 -2.2491,2 -2.65609,2 -0.40699,0 -1.91175,1.2 -3.34391,2.66666 C 284.23451,308.8 282.73451,310 282.33334,310 c -0.40118,0 -1.90118,1.2 -3.33334,2.66667 l -2.60393,2.66666 H 262.6647 c -7.55225,0 -14.01636,-0.2746 -14.3647,-0.61021 -0.34833,-0.33562 -1.35269,-0.71062 -2.23191,-0.83333 -2.22919,-0.31114 -3.2974,-2.16908 -2.22989,-3.87844 1.35609,-2.17144 0.94234,-3.01741 -0.7145,-1.46089 -0.84863,0.79725 -1.85213,1.44954 -2.23,1.44954 -0.37788,0 -1.23004,0.6 -1.8937,1.33333 -0.66366,0.73334 -1.56366,1.33334 -2,1.33334 -0.43634,0 -1.33634,0.6 -2,1.33333 -0.66366,0.73333 -1.55402,1.33333 -1.9786,1.33333 -0.42456,0 -1.6342,0.9 -2.68806,2 -1.05387,1.1 -2.2635,2 -2.68807,2 -0.42457,0 -1.31494,0.6 -1.9786,1.33334 -0.66366,0.73333 -1.56366,1.33333 -2,1.33333 -0.43634,0 -1.33634,0.6 -2,1.33333 -0.66366,0.73334 -1.56366,1.33334 -2,1.33334 -0.43634,0 -1.33634,0.6 -2,1.33333 -0.66366,0.73333 -1.55403,1.33333 -1.9786,1.33333 -0.42457,0 -1.6342,0.9 -2.68807,2 -1.05386,1.1 -2.2635,2 -2.68806,2 -0.42458,0 -1.31494,0.6 -1.9786,1.33334 -0.66366,0.73333 -1.56366,1.33333 -2,1.33333 -0.43634,0 -1.33634,0.6 -2,1.33333 -0.66366,0.73334 -1.55403,1.33334 -1.9786,1.33334 -0.42457,0 -1.6342,0.9 -2.68807,2 -1.05387,1.1 -2.2635,2 -2.68807,2 -0.42457,0 -1.31494,0.6 -1.9786,1.33333 -0.66366,0.73333 -1.55402,1.33333 -1.9786,1.33333 -1.13826,0 -3.97441,3.30702 -5.26434,6.13835 -0.61934,1.35943 -1.40829,2.64611 -1.75323,2.85929 -0.34493,0.21318 -1.54666,2.31424 -2.67049,4.66903 -1.12384,2.35479 -2.33438,4.4613 -2.6901,4.68115 -0.35571,0.21984 -1.24517,1.71332 -1.97657,3.31885 -0.7314,1.60553 -1.62086,3.09901 -1.97657,3.31885 -0.35572,0.21985 -1.56626,2.32636 -2.6901,4.68115 -1.12383,2.35479 -2.33437,4.4613 -2.69009,4.68115 -0.35571,0.21984 -1.24517,1.71332 -1.97657,3.31885 -0.7314,1.60553 -1.6314,3.10553 -2,3.33333 -0.3686,0.22781 -1.2686,1.72781 -2,3.33334 -0.7314,1.60552 -1.62086,3.09901 -1.97658,3.31885 -0.35572,0.21985 -1.55285,2.29827 -2.6603,4.61873 -1.10746,2.32046 -2.4672,4.59551 -3.02167,5.05568 -0.55447,0.46016 -1.00812,1.1836 -1.00812,1.60762 0,0.95316 -8.10733,9.06578 -9.05987,9.06578 -0.37988,0 -1.55293,0.9 -2.6068,2 -1.05386,1.1 -2.2491,2 -2.65609,2 -0.40699,0 -1.91175,1.2 -3.34391,2.66667 -1.43216,1.46667 -2.93692,2.66667 -3.3439,2.66667 -0.40699,0 -1.60223,0.9 -2.6561,2 -1.05386,1.1 -2.25386,2 -2.66666,2 -0.4128,0 -1.6128,0.9 -2.66667,2 -1.05387,1.1 -2.24911,2 -2.65609,2 -0.40699,0 -1.91175,1.2 -3.34391,2.66666 C 120.23451,432.8 118.72975,434 118.32276,434 c -0.40698,0 -1.60222,0.9 -2.65609,2 -1.05387,1.1 -2.24911,2 -2.65609,2 -0.40699,0 -1.91175,1.2 -3.34391,2.66667 -1.43216,1.46666 -2.94075,2.66666 -3.35242,2.66666 -0.41167,0 -1.46036,0.75775 -2.33041,1.68388 -3.40603,3.62555 -3.60008,3.64946 -29.619599,3.64946 -17.853668,0 -24.304861,-0.20729 -24.897573,-0.8 z m 48.502727,-4.50273 c 0.716507,-0.71651 1.915713,-2.64831 2.664915,-4.29291 0.7492,-1.64459 1.66376,-3.17656 2.03236,-3.40436 0.3686,-0.22781 1.2686,-1.72781 2,-3.33334 0.7314,-1.60552 1.62086,-3.09901 1.97657,-3.31885 0.35572,-0.21985 1.56626,-2.32636 2.6901,-4.68115 1.12383,-2.35478 2.32383,-4.45478 2.66666,-4.66666 0.34284,-0.21188 1.54284,-2.31188 2.66667,-4.66667 1.12383,-2.35479 2.33437,-4.4613 2.69009,-4.68115 0.35572,-0.21984 1.24518,-1.71332 1.97658,-3.31885 0.7314,-1.60553 1.62086,-3.09901 1.97657,-3.31885 0.35572,-0.21985 1.56626,-2.32636 2.69009,-4.68115 1.12384,-2.35479 2.32384,-4.45479 2.66667,-4.66667 0.34283,-0.21188 1.54283,-2.31188 2.66667,-4.66666 1.12383,-2.35479 2.33437,-4.4613 2.69009,-4.68115 0.35571,-0.21984 1.24517,-1.71333 1.97657,-3.31885 0.7314,-1.60553 1.62086,-3.09902 1.97658,-3.31886 0.35572,-0.21984 1.56626,-2.32636 2.69009,-4.68114 1.12383,-2.35479 2.32383,-4.45479 2.66667,-4.66667 0.34283,-0.21188 1.54283,-2.31188 2.66666,-4.66667 1.12384,-2.35478 2.33438,-4.4613 2.6901,-4.68114 0.35571,-0.21984 1.24517,-1.71333 1.97657,-3.31886 0.7314,-1.60552 1.62086,-3.09901 1.97657,-3.31885 0.35572,-0.21985 1.56626,-2.32636 2.6901,-4.68115 1.12383,-2.35478 2.33437,-4.4613 2.69009,-4.68114 0.35571,-0.21984 1.24517,-1.71333 1.97657,-3.31886 0.7314,-1.60552 1.62086,-3.09901 1.97658,-3.31885 0.35572,-0.21985 1.56626,-2.32636 2.69009,-4.68115 1.12383,-2.35478 2.32383,-4.45478 2.66667,-4.66666 0.34283,-0.21188 1.54283,-2.31188 2.66666,-4.66667 1.12384,-2.35479 2.33438,-4.4613 2.6901,-4.68115 0.35571,-0.21984 1.24517,-1.71332 1.97657,-3.31885 0.7314,-1.60553 1.62086,-3.09901 1.97657,-3.31885 0.35572,-0.21985 1.56626,-2.32636 2.6901,-4.68115 1.12383,-2.35479 2.32383,-4.45479 2.66666,-4.66667 0.34284,-0.21188 1.54284,-2.31188 2.66667,-4.66666 1.12383,-2.35479 2.33437,-4.4613 2.69009,-4.68115 0.35572,-0.21984 1.24518,-1.71333 1.97658,-3.31885 0.7314,-1.60553 1.62086,-3.09902 1.97657,-3.31886 0.35572,-0.21984 1.56626,-2.32636 2.69009,-4.68114 1.12384,-2.35479 2.32384,-4.45479 2.66667,-4.66667 0.34283,-0.21188 1.54283,-2.31188 2.66667,-4.66667 1.12383,-2.35478 2.33437,-4.4613 2.69009,-4.68114 0.35571,-0.21984 1.24517,-1.71333 1.97657,-3.31886 0.7314,-1.60552 1.62086,-3.09901 1.97658,-3.31885 0.35572,-0.21985 1.56626,-2.32636 2.69009,-4.68115 1.12383,-2.35478 2.32383,-4.45478 2.66667,-4.66666 0.34283,-0.21188 1.54283,-2.31188 2.66666,-4.66667 1.12384,-2.35479 2.33438,-4.4613 2.6901,-4.68115 0.35571,-0.21984 1.24517,-1.71332 1.97657,-3.31885 0.7314,-1.60553 1.62086,-3.09901 1.97657,-3.31885 0.35572,-0.21985 1.56626,-2.32636 2.6901,-4.68115 1.12383,-2.35479 2.32383,-4.45479 2.66666,-4.66667 0.34284,-0.21188 1.54284,-2.31188 2.66667,-4.66666 1.12383,-2.35479 2.33437,-4.4613 2.69009,-4.68115 0.35572,-0.21984 1.24518,-1.71333 1.97658,-3.31885 0.7314,-1.60553 1.62086,-3.09902 1.97657,-3.31886 0.35572,-0.21984 1.56626,-2.32636 2.69009,-4.68114 1.12384,-2.35479 2.31438,-4.44894 2.64564,-4.65368 0.33128,-0.20473 1.42137,-2.09141 2.42245,-4.19262 1.00107,-2.1012 2.57641,-4.64537 3.50075,-5.6537 1.61526,-1.76204 1.93586,-1.83334 8.24348,-1.83334 5.23433,0 6.64096,0.20353 6.94867,1.0054 0.40073,1.04428 -1.32633,5.31395 -2.42383,5.99224 -0.34493,0.21318 -1.54666,2.31424 -2.67049,4.66903 -1.12383,2.35479 -2.33437,4.4613 -2.69009,4.68115 -0.35572,0.21984 -1.24518,1.71332 -1.97658,3.31885 -0.7314,1.60553 -1.62086,3.09901 -1.97657,3.31885 -0.35572,0.21985 -1.56626,2.32636 -2.69009,4.68115 -1.12384,2.35479 -2.33438,4.4613 -2.6901,4.68115 -0.35571,0.21984 -1.24517,1.71332 -1.97657,3.31885 -0.7314,1.60553 -1.62086,3.09901 -1.97657,3.31885 -0.35572,0.21985 -1.56626,2.32636 -2.6901,4.68115 -1.12383,2.35479 -2.33437,4.4613 -2.69009,4.68115 -0.35571,0.21984 -1.24517,1.71332 -1.97657,3.31885 -0.7314,1.60553 -1.62086,3.09901 -1.97658,3.31885 -0.35572,0.21985 -1.56626,2.32636 -2.69009,4.68115 -1.12383,2.35479 -2.32383,4.45479 -2.66667,4.66667 -0.34283,0.21188 -1.54283,2.31188 -2.66666,4.66666 -1.12384,2.35479 -2.32556,4.45586 -2.6705,4.66904 -1.18289,0.73106 -2.87416,5.05298 -2.22959,5.69754 0.366,0.366 15.97953,0.69304 37.92776,0.79443 l 37.30566,0.17233 0.21664,1.89228 c 0.22208,1.93988 -1.40177,4.44105 -2.8833,4.44105 -0.43634,0 -1.33634,0.6 -2,1.33333 -0.66366,0.73334 -1.56366,1.33334 -2,1.33334 -0.43634,0 -1.33634,0.6 -2.00001,1.33333 -0.66366,0.73333 -1.55402,1.33333 -1.9786,1.33333 -0.42456,0 -1.6342,0.9 -2.68806,2 -1.05387,1.1 -2.2635,2 -2.68807,2 -0.42457,0 -1.31494,0.6 -1.9786,1.33334 -0.66366,0.73333 -1.56366,1.33333 -2,1.33333 -0.43634,0 -1.33634,0.6 -2,1.33333 -0.66366,0.73334 -1.56366,1.33334 -2,1.33334 -0.43634,0 -1.33634,0.6 -2,1.33333 -0.66366,0.73333 -1.55403,1.33333 -1.9786,1.33333 -0.42457,0 -1.6342,0.9 -2.68807,2 -1.05386,1.1 -2.2635,2 -2.68806,2 -0.42458,0 -1.31494,0.6 -1.9786,1.33334 C 255.66968,299.4 254.8218,300 254.44917,300 c -1.28072,0 -3.11583,2.20845 -3.11583,3.74971 0,0.84869 -0.57439,2.56571 -1.27641,3.8156 l -1.27641,2.27254 1.64111,0.74774 c 1.8301,0.83386 22.13382,1.04108 23.27234,0.23754 0.38169,-0.26939 5.13424,-9.40093 10.56124,-20.29232 5.427,-10.89139 10.33577,-20.19139 10.9084,-20.66666 0.84871,-0.70444 39.80315,-0.8356 210.7721,-0.70964 519.97089,0.38306 1052.91469,1.40776 1063.06429,2.04398 5.8667,0.36774 14.4697,0.69852 19.1179,0.73506 l 8.4511,0.0665 1.0489,2.10243 c 0.5768,1.15633 1.0488,2.44257 1.0488,2.85831 0,0.91073 15.5495,32.02645 16.6934,33.40477 0.654,0.78804 3.3267,0.96782 14.3882,0.96782 7.4718,0 13.5851,-0.25786 13.5851,-0.57302 0,-0.48365 -0.9814,-2.6178 -4.6414,-10.09364 -0.2692,-0.55 -1.1542,-1.3372 -1.9666,-1.74934 -0.8124,-0.41214 -2.2994,-1.53714 -3.3044,-2.5 -1.005,-0.96288 -2.1297,-1.75068 -2.4994,-1.75068 -0.3696,0 -1.5344,-0.9 -2.5882,-2 -1.0539,-1.1 -2.2539,-2 -2.6667,-2 -0.4128,0 -1.6128,-0.9 -2.6667,-2 -1.0538,-1.1 -2.2634,-2 -2.688,-2 -0.4246,0 -1.315,-0.6 -1.9786,-1.33334 C 1617.6697,284.6 1616.7794,284 1616.3548,284 c -0.4246,0 -1.6342,-0.9 -2.6881,-2 -1.0539,-1.1 -2.2577,-2 -2.6752,-2 -0.4175,0 -1.4863,-0.78183 -2.3753,-1.7374 -0.8889,-0.95557 -2.2912,-1.99815 -3.1162,-2.31683 -1.4817,-0.57239 -2.0691,-2.84866 -0.9186,-3.55975 0.3198,-0.19764 19.4448,-0.3888 42.5,-0.4248 23.0553,-0.036 42.5473,-0.2129 43.3157,-0.3931 1.2835,-0.30101 0.4077,-2.30579 -10.7727,-24.66166 -6.6933,-13.38371 -12.5922,-24.83781 -13.1086,-25.45357 -2.1485,-2.56195 -14.6167,-28.71818 -14.4044,-30.21815 0.2155,-1.52261 0.4318,-1.57358 7.459,-1.75801 4.4465,-0.1167 7.5686,0.0853 8.0971,0.52394 0.9422,0.78198 72.3325,143.24635 72.3325,144.34464 0,0.86582 53.5922,108.02668 54.6818,109.33956 0.6843,0.82453 4.0054,0.9818 20.7332,0.9818 10.9551,0 19.9184,-0.24426 19.9184,-0.54278 0,-0.29853 -2.1,-4.70428 -4.6667,-9.79056 -2.5667,-5.08628 -4.6651,-9.56702 -4.6631,-9.95722 0.01,-1.20426 -9.4837,-19.70944 -10.1073,-19.70944 -0.9168,0 -13.4495,6.40362 -16.2434,8.29963 -3.6228,2.45851 -7.4539,2.34355 -9.9862,-0.29963 -1.0539,-1.1 -2.2186,-2 -2.5883,-2 -0.3696,0 -1.4944,-0.7878 -2.4994,-1.75066 -1.005,-0.96287 -2.5155,-2.09378 -3.3566,-2.51314 -0.8412,-0.41936 -1.847,-1.39957 -2.2352,-2.17824 -0.3882,-0.77867 -1.1099,-1.90256 -1.6037,-2.49755 C 1776.2136,400.31749 1764,375.9121 1764,374.98407 c 0,-0.39088 -3,-6.68371 -6.6666,-13.98407 -3.6667,-7.30036 -6.6667,-13.60023 -6.6667,-13.99972 0,-1.71533 -6.1344,-12.74837 -8.3493,-15.01661 -3.6622,-3.75048 -3.1616,-5.55978 2.3445,-8.47245 2.3807,-1.25938 4.4807,-2.49687 4.6667,-2.74997 0.186,-0.2531 2.8881,-1.7304 6.0048,-3.2829 6.6068,-3.29102 11.0218,-3.77496 13.4869,-1.47835 0.7871,0.73333 1.8246,1.33333 2.3055,1.33333 0.4808,0 0.8742,0.24931 0.8742,0.55402 0,0.3047 0.825,0.9797 1.8334,1.5 1.0083,0.52029 2.1988,1.39598 2.6454,1.94598 1.9726,2.42886 1.0736,3.21605 -9.9788,8.73788 -5.9583,2.97682 -10.9652,5.5355 -11.1264,5.68596 -0.1613,0.15046 1.0652,1.69164 2.7254,3.42486 1.6602,1.73322 4.142,5.47395 5.515,8.31274 1.373,2.83878 2.7378,5.31058 3.0327,5.49287 0.2949,0.18229 5.1039,9.48785 10.6867,20.67903 5.5827,11.19117 10.396,20.49937 10.6961,20.68489 0.3002,0.18552 2.0894,3.48231 3.976,7.32621 1.8866,3.84389 3.7109,6.9889 4.054,6.9889 1.1622,0 20.7016,-10.05133 20.4869,-10.53874 -1.5429,-3.50394 -7.4388,-14.85544 -7.8468,-15.10758 -0.2982,-0.18435 -6.3131,-11.8935 -13.3662,-26.02035 -7.0532,-14.12685 -13.0696,-25.83697 -13.3698,-26.02251 -0.7104,-0.43902 -2.6302,-4.29296 -2.6302,-5.27988 0,-0.42031 -2.7,-6.13424 -6,-12.69761 -3.3,-6.56337 -6,-12.26337 -6,-12.66667 0,-0.40329 -2.7,-6.10329 -6,-12.66666 -3.3,-6.56338 -6,-12.5634 -6,-13.33338 0,-2.4728 1.2932,-2.99996 7.3596,-2.99996 5.5251,0 5.7912,-0.0692 6.5334,-1.69803 0.4255,-0.93392 0.7736,-2.41621 0.7736,-3.29399 0,-0.87778 0.3,-1.78136 0.6667,-2.00798 0.3667,-0.22661 0.6667,-0.99838 0.6667,-1.71506 0,-0.71666 0.3552,-1.87185 0.7894,-2.56708 0.6768,-1.08375 0.4866,-1.5188 -1.3334,-3.05021 -3.2966,-2.77397 -2.6941,-7.00098 0.9979,-7.00098 1.6722,0 2.7794,-2.57465 1.7755,-4.12877 -0.3095,-0.47918 -0.7852,-4.02123 -1.057,-7.87123 -0.4846,-6.86473 -1.1806,-15.04237 -2.5247,-29.66667 -1.3921,-15.14704 -1.4657,-18.04452 -0.4789,-18.86344 0.5951,-0.49395 4.8444,-0.83478 11.8789,-0.9528 l 10.9523,-0.18376 0.4858,-4.66666 c 0.4618,-4.43653 0.9716,-8.68904 2.5378,-21.16667 1.3551,-10.79544 1.49,-14.64221 0.5346,-15.24776 -1.3198,-0.83657 -500.7936,-0.7502 -501.6306,0.0867 -0.4499,0.44996 -97.6014,0.66982 -293.7516,0.66478 -193.46752,-0.005 -293.67432,0.21868 -294.82992,0.65803 -1.15533,0.43925 -101.09402,0.66862 -293.90698,0.67454 -178.47825,0.005 -292.99914,0.25067 -294.32226,0.63013 -1.19122,0.34164 -6.41758,0.68344 -11.61414,0.75956 -5.19656,0.0761 -9.995945,0.2816 -10.665292,0.45664 -1.143653,0.29907 -1.2012,1.24739 -0.954813,15.73446 0.1442,8.47891 0.529593,16.7662 0.856427,18.4162 l 0.594246,3 4.307767,0.20214 c 4.777705,0.2242 6.025565,0.8814 6.025565,3.17348 0,0.85013 0.26686,1.71062 0.59301,1.91219 0.55791,0.34481 0.74651,1.09873 1.78471,7.13427 0.49158,2.85779 2.2617,3.91126 6.57202,3.91126 1.7169,0 3.21419,0.39423 3.69427,0.97269 0.9516,1.14661 0.30214,5.02731 -0.84135,5.02731 -0.41694,0 -2.06844,0.50043 -3.67,1.11207 -3.1883,1.21762 -3.07347,0.62295 -1.39439,7.22126 0.37322,1.46667 0.941,4.01667 1.26173,5.66667 0.32074,1.65 0.90194,4.275 1.29158,5.83333 0.38963,1.55833 1.02722,4.10833 1.41685,5.66667 C 117.09806,237.725 117.67927,240.35 118,242 c 0.32074,1.65 0.88823,4.2 1.2611,5.66667 1.93844,7.6247 2.47834,10.0417 3.79742,17 0.762,4.01962 0.69551,4 13.55644,4 12.38303,0 13.38504,0.2261 13.38504,3.02034 0,1.51506 -2.55109,6.96082 -4.14335,8.84472 -0.52759,0.62422 -2.08599,3.45758 -3.46314,6.29637 -1.37714,2.83879 -2.77745,5.3305 -3.11178,5.53713 -0.33434,0.20663 -0.91645,0.95224 -1.29357,1.6569 -0.55603,1.03895 -0.49168,1.20675 0.34036,0.88747 0.98978,-0.37981 15.96797,6.61876 16.6999,7.80304 0.19625,0.31755 2.29514,1.50243 4.6642,2.63308 2.36906,1.13065 4.30738,2.48127 4.30738,3.00139 0,0.52012 -0.6,2.01392 -1.33333,3.31956 -0.73333,1.30564 -1.33333,2.92803 -1.33333,3.60531 0,0.67729 -0.43042,1.58864 -0.95648,2.02523 -0.52606,0.4366 -4.00634,6.92433 -7.73394,14.4172 -3.72761,7.49286 -7.0282,13.77835 -7.33464,13.96774 -0.76972,0.47571 -2.64161,4.32304 -2.64161,5.42932 0,0.99149 -1.1547,3.24784 -2.56582,5.01376 -0.49453,0.61887 -4.84453,9.0116 -9.66667,18.65052 -6.20584,12.4048 -9.2182,17.74896 -10.31002,18.29078 -0.84839,0.42102 -2.3648,1.55328 -3.36982,2.51614 -1.00501,0.96286 -2.13938,1.75066 -2.52082,1.75066 -0.38144,0 -1.24848,0.61321 -1.92674,1.36268 -0.67826,0.74948 -1.84976,1.27448 -2.60333,1.16667 -1.89717,-0.27141 -2.21943,-3.53481 -0.53642,-5.43211 1.70046,-1.91698 15.77996,-30.37247 15.27691,-30.87552 -0.21762,-0.21762 0.68186,-1.35452 1.99884,-2.52645 2.04985,-1.82407 2.28986,-2.32631 1.66748,-3.48925 -0.39987,-0.74716 -2.38826,-2.17124 -4.41864,-3.16461 -3.82587,-1.87182 -4.7948,-2.7749 -2.19162,-2.04266 1.15473,0.32481 1.2711,0.26481 0.50554,-0.26067 -0.54695,-0.37543 -1.68825,-0.50847 -2.53621,-0.29564 -1.01533,0.25483 -3.01286,-0.35974 -5.85025,-1.79993 l -4.3085,-2.18688 -1.63474,1.53576 c -0.89911,0.84467 -1.49123,1.76797 -1.31583,2.05177 0.17541,0.28381 -0.069,0.9152 -0.54302,1.4031 -0.47406,0.48789 -1.69603,2.60624 -2.71549,4.70745 -1.01945,2.10121 -2.1181,3.98387 -2.44144,4.18371 -0.32334,0.19984 -1.820365,2.898 -3.326725,5.99592 -1.50636,3.09792 -3.012847,5.80192 -3.347747,6.0089 -0.334906,0.20699 -1.52842,2.30298 -2.652253,4.65776 -1.123833,2.35479 -2.317347,4.45078 -2.652253,4.65776 -0.3349,0.20698 -1.841387,2.91099 -3.347747,6.00891 -1.50636,3.09792 -3.00636,5.79792 -3.333334,6 -0.326973,0.20208 -1.826973,2.90208 -3.333333,6 -1.50636,3.09792 -3.00636,5.79792 -3.333333,6 -0.326974,0.20208 -1.826974,2.90208 -3.333334,6 -1.50636,3.09792 -3.00636,5.79792 -3.333333,6 -0.326973,0.20208 -1.826973,2.90208 -3.333334,6 -1.506358,3.09792 -2.997758,5.79261 -3.314222,5.98819 -0.316464,0.19558 -1.701288,2.67826 -3.077388,5.51704 -1.3761,2.83879 -3.103232,5.83644 -3.83807,6.66144 l -1.336072,1.5 h 21.449546 c 20.392687,0 21.513727,-0.0642 22.752267,-1.30273 z M 112.66667,357 c -0.45646,-0.55 -0.60646,-1 -0.33333,-1 0.27312,0 0.0849,-0.525 -0.41838,-1.16667 -0.83197,-1.06085 -0.80768,-1.08247 0.26782,-0.23833 0.65053,0.51059 1.02813,1.08298 0.83912,1.27199 -0.18902,0.18902 -0.01,0.74627 0.39885,1.23834 0.40838,0.49207 0.59251,0.89467 0.40918,0.89467 -0.18333,0 -0.7068,-0.45 -1.16326,-1 z M 1792,441.5949 c 0,-0.55175 -1.2944,-0.86377 -1.5912,-0.38355 -0.1926,0.31154 0.087,0.56643 0.6206,0.56643 0.5338,0 0.9706,-0.0823 0.9706,-0.18288 z M 102.82662,440.43219 c 0.4248,0.26254 0.51785,0.12517 0.23032,-0.34006 -0.56724,-0.91781 -1.74702,-0.3667 -1.67097,0.78055 0.0377,0.56829 0.14861,0.55593 0.39027,-0.0435 0.1857,-0.46062 0.65837,-0.63926 1.05038,-0.39699 z m 4.84005,-3.76552 C 109.09883,435.2 110.60359,434 111.01058,434 c 0.40698,0 1.60222,-0.9 2.65609,-2 1.05387,-1.1 2.24911,-2 2.65609,-2 0.40699,0 1.91175,-1.2 3.34391,-2.66667 1.43216,-1.46666 2.93692,-2.66666 3.34391,-2.66666 0.40698,0 1.60222,-0.9 2.65609,-2 1.05387,-1.1 2.25387,-2 2.66667,-2 0.4128,0 1.6128,-0.9 2.66666,-2 1.05387,-1.1 2.24911,-2 2.6561,-2 0.40698,0 1.91174,-1.2 3.3439,-2.66667 1.43216,-1.46667 2.93692,-2.66667 3.34391,-2.66667 0.40699,0 1.60223,-0.9 2.65609,-2 1.05387,-1.1 2.22469,-2 2.60183,-2 0.95294,0 7.06484,-6.10769 7.06484,-7.05997 0,-0.42722 0.45365,-1.15327 1.00812,-1.61343 0.55447,-0.46017 1.91421,-2.73522 3.02167,-5.05568 1.10745,-2.32046 2.30458,-4.39888 2.6603,-4.61873 0.35572,-0.21984 1.24518,-1.71333 1.97658,-3.31885 0.7314,-1.60553 1.6314,-3.10553 2,-3.33334 0.3686,-0.2278 1.2686,-1.7278 2,-3.33333 0.7314,-1.60553 1.62086,-3.09901 1.97657,-3.31885 0.35572,-0.21985 1.56626,-2.32636 2.69009,-4.68115 1.12384,-2.35479 2.33438,-4.4613 2.6901,-4.68115 0.35571,-0.21984 1.24517,-1.71332 1.97657,-3.31885 0.7314,-1.60553 1.62086,-3.09901 1.97657,-3.31885 0.35572,-0.21985 1.56626,-2.32636 2.6901,-4.68115 1.12383,-2.35479 2.32556,-4.45585 2.67049,-4.66903 0.34494,-0.21318 1.13243,-1.49986 1.74999,-2.85929 1.23592,-2.72065 6.08333,-8.13835 7.28166,-8.13835 0.41683,0 1.30086,-0.6 1.96452,-1.33333 0.66366,-0.73333 1.55403,-1.33333 1.9786,-1.33333 0.42457,0 1.6342,-0.9 2.68807,-2 1.05387,-1.1 2.2635,-2 2.68807,-2 0.42457,0 1.31494,-0.6 1.9786,-1.33334 C 202.997,330.6 203.897,330 204.33334,330 c 0.43634,0 1.33634,-0.6 2,-1.33333 0.66366,-0.73334 1.55402,-1.33334 1.9786,-1.33334 0.42456,0 1.6342,-0.9 2.68806,-2 1.05387,-1.1 2.2635,-2 2.68807,-2 0.42457,0 1.31494,-0.6 1.9786,-1.33333 0.66366,-0.73333 1.56366,-1.33333 2,-1.33333 0.43634,0 1.33634,-0.6 2,-1.33334 0.66366,-0.73333 1.56366,-1.33333 2,-1.33333 0.43634,0 1.33634,-0.6 2,-1.33333 0.66366,-0.73334 1.55403,-1.33334 1.9786,-1.33334 0.42457,0 1.6342,-0.9 2.68807,-2 1.05386,-1.1 2.2635,-2 2.68806,-2 0.42458,0 1.31494,-0.6 1.9786,-1.33333 0.66366,-0.73333 1.56366,-1.33333 2,-1.33333 0.43634,0 1.33634,-0.6 2,-1.33334 C 237.66366,306.6 238.56366,306 239,306 c 0.43634,0 1.33634,-0.6 2,-1.33333 0.66366,-0.73334 1.56366,-1.33334 2,-1.33334 0.43634,0 1.36485,-0.6414 2.06334,-1.42534 0.6985,-0.78394 2.17,-1.85193 3.27,-2.37331 3.06746,-1.45391 4.87316,-2.54657 6.21456,-3.76053 0.67307,-0.60912 1.51901,-1.10748 1.87987,-1.10748 0.36086,0 1.51837,-0.9 2.57223,-2 1.05387,-1.1 2.2635,-2 2.68807,-2 0.42457,0 1.31494,-0.6 1.9786,-1.33334 0.66366,-0.73333 1.56366,-1.33333 2,-1.33333 0.43634,0 1.33634,-0.6 2,-1.33333 0.66366,-0.73334 1.56366,-1.33334 2,-1.33334 0.43634,0 1.33634,-0.6 2,-1.33333 0.66366,-0.73333 1.55403,-1.33333 1.9786,-1.33333 0.42457,0 1.6342,-0.9 2.68807,-2 1.05386,-1.1 2.2635,-2 2.68806,-2 0.42458,0 1.31494,-0.6 1.9786,-1.33334 C 281.66366,276.6 282.56366,276 283,276 c 0.43635,0 1.33635,-0.6 2.00001,-1.33333 0.66366,-0.73334 1.66015,-1.33334 2.21443,-1.33334 0.55429,0 0.78295,-0.225 0.50815,-0.5 -0.27481,-0.275 -17.64579,-0.65 -38.60218,-0.83333 -36.31701,-0.31771 -38.11359,-0.39079 -38.33847,-1.55947 -0.12977,-0.67438 0.34178,-1.87438 1.04789,-2.66667 0.70611,-0.79229 1.79129,-2.55278 2.41151,-3.91221 0.62022,-1.35942 1.4099,-2.6461 1.75484,-2.85928 0.34493,-0.21318 1.54666,-2.31425 2.67049,-4.66904 1.12383,-2.35478 2.32383,-4.45478 2.66667,-4.66666 0.34283,-0.21188 1.54283,-2.31188 2.66666,-4.66667 1.12384,-2.35479 2.33438,-4.4613 2.6901,-4.68115 0.35571,-0.21984 1.24517,-1.71332 1.97657,-3.31885 0.7314,-1.60553 1.62086,-3.09901 1.97657,-3.31885 0.35572,-0.21985 1.56626,-2.32636 2.6901,-4.68115 1.12383,-2.35479 2.33437,-4.4613 2.69009,-4.68115 0.35571,-0.21984 1.24517,-1.71332 1.97657,-3.31885 0.7314,-1.60553 1.62086,-3.09901 1.97658,-3.31885 0.35572,-0.21985 1.56626,-2.32636 2.69009,-4.68115 1.12383,-2.35479 2.33437,-4.4613 2.69009,-4.68115 0.35572,-0.21984 1.24518,-1.71332 1.97658,-3.31885 0.7314,-1.60553 1.6114,-3.09317 1.95555,-3.30586 0.34415,-0.2127 1.44551,-2.10589 2.44746,-4.2071 1.00195,-2.10121 2.38875,-4.45843 3.08179,-5.23829 1.24688,-1.4031 1.24181,-1.4225 -0.48562,-1.85605 -2.00368,-0.50289 -6.26653,0.13077 -7.5073,1.11593 -0.4628,0.36746 -1.74755,2.56666 -2.855,4.88712 -1.10746,2.32046 -2.29405,4.39237 -2.63688,4.60425 -0.34284,0.21188 -1.54284,2.31188 -2.66667,4.66667 -1.12383,2.35478 -2.33437,4.4613 -2.69009,4.68114 -0.35572,0.21984 -1.24518,1.71333 -1.97658,3.31886 -0.7314,1.60552 -1.62086,3.09901 -1.97657,3.31885 -0.35572,0.21985 -1.56626,2.32636 -2.69009,4.68115 -1.12384,2.35478 -2.32384,4.45478 -2.66667,4.66666 -0.34283,0.21188 -1.54283,2.31188 -2.66667,4.66667 -1.12383,2.35479 -2.33437,4.4613 -2.69009,4.68115 -0.35571,0.21984 -1.24517,1.71332 -1.97657,3.31885 -0.7314,1.60553 -1.62086,3.09901 -1.97658,3.31885 -0.35572,0.21985 -1.56626,2.32636 -2.69009,4.68115 -1.12383,2.35479 -2.32383,4.45479 -2.66667,4.66667 -0.34283,0.21188 -1.54283,2.31188 -2.66666,4.66666 -1.12384,2.35479 -2.33438,4.4613 -2.6901,4.68115 -0.35571,0.21984 -1.24517,1.71333 -1.97657,3.31885 -0.7314,1.60553 -1.62086,3.09902 -1.97657,3.31886 -0.35572,0.21984 -1.56626,2.32636 -2.6901,4.68114 -1.12383,2.35479 -2.32383,4.45479 -2.66666,4.66667 -0.34284,0.21188 -1.54284,2.31188 -2.66667,4.66667 -1.12383,2.35478 -2.33437,4.4613 -2.69009,4.68114 -0.35572,0.21984 -1.24518,1.71333 -1.97658,3.31886 -0.7314,1.60552 -1.62086,3.09901 -1.97657,3.31885 -0.35572,0.21985 -1.56626,2.32636 -2.69009,4.68115 -1.12384,2.35478 -2.32384,4.45478 -2.66667,4.66666 -0.34283,0.21188 -1.54283,2.31188 -2.66667,4.66667 -1.12383,2.35479 -2.33437,4.4613 -2.69009,4.68115 -0.35571,0.21984 -1.24517,1.71332 -1.97657,3.31885 -0.7314,1.60553 -1.62086,3.09901 -1.97658,3.31885 -0.35572,0.21985 -1.56626,2.32636 -2.69009,4.68115 -1.12383,2.35479 -2.32383,4.45479 -2.66667,4.66667 -0.34283,0.21188 -1.54283,2.31188 -2.66666,4.66666 -1.12384,2.35479 -2.33438,4.4613 -2.6901,4.68115 -0.35571,0.21984 -1.24517,1.71333 -1.97657,3.31885 -0.7314,1.60553 -1.62086,3.09902 -1.97657,3.31886 -0.35572,0.21984 -1.56626,2.32636 -2.6901,4.68114 -1.12383,2.35479 -2.33437,4.4613 -2.69009,4.68115 -0.35571,0.21984 -1.24517,1.71333 -1.97657,3.31885 -0.7314,1.60553 -1.62086,3.09902 -1.97658,3.31886 -0.35572,0.21984 -1.56626,2.32636 -2.69009,4.68114 -1.12383,2.35479 -2.32383,4.45479 -2.66667,4.66667 -0.34283,0.21188 -1.54283,2.31188 -2.66666,4.66667 -1.12384,2.35478 -2.33438,4.4613 -2.6901,4.68114 -0.35571,0.21984 -1.24517,1.71333 -1.97657,3.31886 -0.7314,1.60552 -1.62086,3.09901 -1.97657,3.31885 -0.35572,0.21985 -1.56626,2.32636 -2.6901,4.68115 -1.12383,2.35478 -2.32383,4.45478 -2.66666,4.66666 -0.34284,0.21188 -1.54284,2.31188 -2.66667,4.66667 -1.12383,2.35479 -2.33437,4.4613 -2.69009,4.68115 -0.35572,0.21984 -1.24518,1.71332 -1.97658,3.31885 -0.7314,1.60553 -1.62086,3.09901 -1.97657,3.31885 -0.35572,0.21985 -1.56626,2.32636 -2.69009,4.68115 -1.12384,2.35479 -2.32384,4.45479 -2.66667,4.66667 -0.34283,0.21188 -1.54283,2.31188 -2.66667,4.66666 -1.12383,2.35479 -2.32556,4.45586 -2.67049,4.66904 -0.34494,0.21318 -1.13461,1.49986 -1.75484,2.85928 -0.62022,1.35943 -1.73054,3.14668 -2.46738,3.97168 -2.32953,2.60826 -0.16188,1.62016 2.55938,-1.16666 z M 1788,438.49211 c 0,-0.096 -11.4,-22.96746 -25.3333,-50.82544 -13.9333,-27.85798 -25.3333,-50.95556 -25.3333,-51.32794 0,-0.37238 -16.0478,-32.77592 -35.6619,-72.00789 -39.0832,-78.17433 -35.5573,-72.06182 -41.6715,-72.24175 -4.7838,-0.14079 -4.7496,0.0696 2.2999,14.1941 3.587,7.187 6.7487,13.20752 7.0261,13.37894 1.172,0.72432 26.7969,53.0561 26.4378,53.99188 -0.3222,0.83967 -2.015,1.0144 -9.9095,1.02286 -5.2365,0.005 -9.9227,0.26483 -10.4136,0.57603 -0.7242,0.45902 -0.6299,1.10989 0.5,3.44835 1.6655,3.44708 1.7403,4.54051 0.3477,5.07492 -1.3074,0.5017 -3.2246,-0.48228 -9.955,-5.1095 L 1661,275 h -24.832 c -24.4387,0 -27.1588,0.24055 -23.5506,2.08267 0.8072,0.41214 2.29,1.53714 3.295,2.5 1.005,0.96286 2.1394,1.75066 2.5208,1.75066 0.3814,0 1.2365,0.6 1.9002,1.33334 0.6636,0.73333 1.554,1.33333 1.9786,1.33333 0.4246,0 1.6342,0.9 2.688,2 1.0539,1.1 2.2539,2 2.6667,2 0.4128,0 1.6128,0.9 2.6667,2 1.0538,1.1 2.2538,2 2.6666,2 0.4128,0 1.6128,0.9 2.6667,2 1.0539,1.1 2.2577,2 2.6752,2 0.4175,0 1.4637,0.75 2.3248,1.66667 0.8611,0.91666 1.953,1.66666 2.4263,1.66666 0.4734,0 1.8461,0.83818 3.0505,1.86263 1.2044,1.02445 2.9399,2.37715 3.8565,3.00599 0.9167,0.62886 3.0167,2.18918 4.6667,3.46738 1.65,1.27822 4.05,3.07702 5.3333,3.99734 1.2834,0.92032 3.6834,2.71728 5.3334,3.99324 1.65,1.27597 4.95,3.67901 7.3333,5.34009 2.3833,1.66108 5.6833,4.06412 7.3333,5.34009 1.65,1.27596 4.05,3.07292 5.3334,3.99324 1.2833,0.92032 3.6833,2.72032 5.3333,4 1.65,1.27968 4.05,3.07968 5.3333,4 1.2834,0.92032 3.6834,2.72032 5.3334,4 1.65,1.27968 4.05,3.03927 5.3333,3.91021 1.2833,0.87093 2.9048,2.22243 3.6033,3.00332 0.6985,0.78089 1.5985,1.43147 2,1.44573 0.4015,0.0143 6.2546,11.18926 13.0068,24.83334 9.8681,19.94028 12.8715,25.42869 15.3082,27.97407 1.6674,1.74167 3.3017,3.16667 3.6318,3.16667 0.3302,0 1.5414,0.76554 2.6918,1.70121 2.1655,1.76145 5.7626,4.50997 10.4248,7.96545 1.4841,1.1 3.8841,2.9 5.3333,4 1.4492,1.1 3.8492,2.9 5.3333,4 1.4842,1.1 3.8842,2.9 5.3334,4 1.4492,1.1 3.8492,2.9 5.3333,4 1.4841,1.1 3.9197,2.975 5.4123,4.16667 2.3106,1.84471 3.921,2.66291 3.921,1.99211 z M 104.33334,436.66667 c 0.66366,-0.73334 1.05665,-1.33334 0.87332,-1.33334 -0.18334,0 -0.87633,0.6 -1.53999,1.33334 C 103.00301,437.4 102.61002,438 102.79335,438 c 0.18333,0 0.87633,-0.6 1.53999,-1.33333 z m 4,-6.66667 c 0.66366,-0.73333 1.05665,-1.33333 0.87332,-1.33333 -0.18334,0 -0.87633,0.6 -1.53999,1.33333 -0.66366,0.73333 -1.05665,1.33333 -0.87332,1.33333 0.18333,0 0.87633,-0.6 1.53999,-1.33333 z m 5.33333,-9.33333 c 0.66366,-0.73334 1.05665,-1.33334 0.87332,-1.33334 -0.18333,0 -0.87633,0.6 -1.53999,1.33334 C 112.33634,421.4 111.94335,422 112.12668,422 c 0.18334,0 0.87633,-0.6 1.53999,-1.33333 z m 1679.60783,-7.5 C 1793.1199,413.075 1791.9449,412.1 1790.6634,411 l -2.33,-2 1.958,2.16667 c 1.077,1.19166 2.252,2.16666 2.6112,2.16666 0.3591,0 0.5265,-0.075 0.3719,-0.16666 z m 4.0371,-0.7588 c -0.051,-0.32567 0.3085,-0.84608 0.7982,-1.15646 0.7152,-0.45341 0.6937,-0.56834 -0.1098,-0.58474 -0.8888,-0.0181 -0.8888,-0.099 0,-0.72763 0.6623,-0.46837 0.7017,-0.62815 0.1167,-0.47313 -0.4858,0.12875 -0.8352,0.49305 -0.7764,0.80956 0.059,0.3165 -0.2937,0.8294 -0.7833,1.13978 -0.7168,0.45434 -0.6954,0.57546 0.1097,0.6214 0.6865,0.0392 0.582,0.2496 -0.3333,0.67122 -1.116,0.51402 -1.1374,0.5879 -0.1315,0.45314 0.6611,-0.0886 1.1604,-0.42747 1.1097,-0.75314 z M 119,411.33333 C 119.66366,410.6 120.05666,410 119.87332,410 c -0.18333,0 -0.87632,0.6 -1.53998,1.33333 -0.66366,0.73334 -1.05666,1.33334 -0.87332,1.33334 0.18333,0 0.87632,-0.6 1.53998,-1.33334 z m 1689.8334,-4.94889 c 3.6322,-1.77536 6.5,-3.59047 6.5,-4.11408 0,-0.51537 -0.236,-0.93703 -0.5243,-0.93703 -0.2883,0 -3.8016,1.64275 -7.8071,3.65055 -6.2982,3.15692 -7.2952,3.88087 -7.3739,5.35385 -0.09,1.68022 -0.072,1.6865 1.3071,0.46354 0.769,-0.68187 4.3232,-2.66944 7.8982,-4.41683 z m -8.6112,3.31155 c 0,-0.53387 0.255,-0.81314 0.5665,-0.6206 0.3115,0.19254 0.3938,0.62934 0.1829,0.97068 -0.5391,0.87225 -0.7494,0.77404 -0.7494,-0.35008 z m -10.5612,-5.40424 c -1.9412,-3.87286 -3.9563,-7.54786 -4.4778,-8.16666 -0.5216,-0.6188 -5.3882,-10.05531 -10.8148,-20.97002 -5.4266,-10.9147 -10.1132,-19.99738 -10.4147,-20.1837 -0.3015,-0.18634 -1.7498,-2.80612 -3.2185,-5.82175 -1.7264,-3.5449 -3.8011,-6.56911 -5.8694,-8.55582 -4.7933,-4.60417 -5.841,-4.64923 -3.474,-0.14943 1.0678,2.03006 1.9416,4.04905 1.9416,4.48664 0,0.43758 3,6.76863 6.6666,14.06899 3.6667,7.30036 6.6667,13.59319 6.6667,13.98407 0,0.98079 12.3137,25.50684 13.5027,26.89418 0.5287,0.61696 1.1492,1.65125 1.3789,2.29842 0.2297,0.64717 1.1003,1.44034 1.9347,1.7626 0.8344,0.32226 2.2443,1.36776 3.1332,2.32333 0.889,0.95557 1.9616,1.7374 2.3838,1.7374 0.4222,0 1.4722,0.75 2.3334,1.66667 0.8611,0.91666 1.6313,1.66666 1.7115,1.66666 0.08,0 -1.4426,-3.16871 -3.3839,-7.04158 z m -2.3276,4.83298 c 0,-0.11474 -0.975,-1.08974 -2.1667,-2.16667 L 1783,405 l 1.9581,2.16667 c 1.8252,2.01964 2.3753,2.4731 2.3753,1.95806 z M 123,404.66667 c 0.66366,-0.73334 1.05666,-1.33334 0.87332,-1.33334 -0.18333,0 -0.87632,0.6 -1.53998,1.33334 C 121.66968,405.4 121.27668,406 121.46002,406 c 0.18333,0 0.87632,-0.6 1.53998,-1.33333 z m 1659,0.41496 c 0,-0.13844 -0.525,-0.66344 -1.1666,-1.16667 -1.0574,-0.82925 -1.081,-0.80567 -0.2518,0.25171 0.871,1.1105 1.4184,1.46365 1.4184,0.91496 z m -2,-3.31164 c 0,-0.1265 -0.675,-0.8015 -1.5,-1.5 L 1777,399 l 1.27,1.5 c 1.1935,1.40963 1.73,1.80349 1.73,1.26999 z M 112.00343,395.6708 c -0.36219,-0.43641 -0.51529,-0.99504 -0.34023,-1.2414 0.17506,-0.24635 -0.31923,0.13127 -1.09842,0.83915 -0.9085,0.82538 -1.25892,1.69827 -0.97684,2.43334 0.41323,1.07686 0.51961,1.0741 1.75694,-0.0457 0.91037,-0.82388 1.11373,-1.43697 0.65855,-1.98542 z m -1.6349,1.05281 c -0.21465,-0.34732 -0.10611,-0.8071 0.2412,-1.02175 0.34731,-0.21465 0.8071,-0.10611 1.02175,0.2412 0.21465,0.34731 0.10611,0.8071 -0.2412,1.02175 -0.34732,0.21465 -0.8071,0.10611 -1.02175,-0.2412 z m 17.96481,-1.39028 C 128.997,394.6 129.38999,394 129.20666,394 c -0.18334,0 -0.87633,0.6 -1.53999,1.33333 -0.66366,0.73334 -1.05665,1.33334 -0.87332,1.33334 0.18333,0 0.87633,-0.6 1.53999,-1.33334 z M 1788,396.43666 c 0,-0.12651 -0.675,-0.80151 -1.5,-1.5 l -1.5,-1.26999 1.27,1.5 c 1.1935,1.40962 1.73,1.80349 1.73,1.26999 z m -1671.62472,-2.60333 1.95806,-2.16666 -2.16667,1.95806 c -2.01964,1.82518 -2.4731,2.37527 -1.95806,2.37527 0.11473,0 1.08973,-0.975 2.16667,-2.16667 z m 1.69203,-3.34322 c 0.58701,-0.2046 5.04474,-8.3511 9.90605,-18.10332 4.8613,-9.75222 9.08702,-17.88476 9.39048,-18.0723 C 138.09004,353.86567 140,350.0152 140,349 c 0,-1.0118 1.90892,-4.86501 2.63137,-5.31151 0.30081,-0.18592 3.48367,-6.26688 7.07301,-13.51326 3.58934,-7.24638 7.1254,-13.84905 7.85792,-14.6726 0.73252,-0.82356 1.12948,-1.69974 0.88215,-1.94708 -0.54982,-0.54982 -3.77778,2.38088 -3.77778,3.42988 0,0.41416 -1.05741,1.7779 -2.34981,3.03054 -1.37906,1.33664 -4.01718,5.65672 -6.38588,10.45724 -2.21983,4.49884 -4.29291,8.33846 -4.60684,8.53248 -1.0454,0.64608 -9.32414,18.15075 -9.32414,19.71505 0,0.8468 -0.76854,2.34183 -1.70788,3.32229 -0.93934,0.98045 -5.12622,8.61542 -9.30418,16.9666 -5.70581,11.40514 -7.14729,14.76942 -5.79212,13.51823 0.9923,-0.91615 2.28447,-1.83314 2.87149,-2.03775 z m 2.6844,0.34322 c 0.82925,-1.05737 0.80567,-1.08095 -0.25171,-0.2517 -0.64166,0.50323 -1.16666,1.02823 -1.16666,1.16666 0,0.5487 0.54746,0.19554 1.41837,-0.91496 z M 133.66667,386 c 0.66366,-0.73333 1.05665,-1.33333 0.87332,-1.33333 -0.18333,0 -0.87633,0.6 -1.53999,1.33333 -0.66366,0.73333 -1.05665,1.33333 -0.87332,1.33333 0.18334,0 0.87633,-0.6 1.53999,-1.33333 z m 4,-6.66667 C 138.33033,378.6 138.72332,378 138.53999,378 c -0.18333,0 -0.87633,0.6 -1.53999,1.33333 -0.66366,0.73334 -1.05665,1.33334 -0.87332,1.33334 0.18334,0 0.87633,-0.6 1.53999,-1.33334 z M 143,370 c 0.66366,-0.73333 1.05666,-1.33333 0.87332,-1.33333 -0.18333,0 -0.87632,0.6 -1.53998,1.33333 -0.66366,0.73333 -1.05666,1.33333 -0.87332,1.33333 0.18333,0 0.87632,-0.6 1.53998,-1.33333 z m -12.36752,-10.87492 c -0.16453,-0.13805 -1.17737,0.82734 -2.25076,2.1453 l -1.95161,2.39629 2.25076,-2.1453 c 1.23791,-1.17992 2.11614,-2.25825 1.95161,-2.39629 z m 17.70086,1.54159 c 0.66366,-0.73334 1.05665,-1.33334 0.87332,-1.33334 -0.18334,0 -0.87633,0.6 -1.53999,1.33334 C 147.00301,361.4 146.61002,362 146.79335,362 c 0.18333,0 0.87633,-0.6 1.53999,-1.33333 z M 139,355.33333 C 139.66366,354.6 140.05666,354 139.87332,354 c -0.18333,0 -0.87632,0.6 -1.53998,1.33333 -0.66366,0.73334 -1.05666,1.33334 -0.87332,1.33334 0.18333,0 0.87632,-0.6 1.53998,-1.33334 z m -5.57611,-8.56092 c 2.43314,-4.83214 4.80131,-9.24048 5.26261,-9.7963 0.93384,-1.12522 6.72056,-12.46954 6.47152,-12.68684 -0.0869,-0.0758 -4.05802,-2.12323 -8.82468,-4.54976 -4.76667,-2.42652 -9.17728,-4.77498 -9.80136,-5.21878 -0.62408,-0.4438 -1.31191,-0.62968 -1.52852,-0.41308 -0.2166,0.2166 -3.67756,6.93689 -7.69101,14.93397 -6.89683,13.74241 -7.23217,14.59735 -6.11212,15.5826 0.65179,0.57335 1.62335,1.13995 2.15904,1.25911 0.53568,0.11917 1.07459,0.49604 1.19757,0.83749 0.12299,0.34145 0.4738,0.46619 0.77959,0.27721 0.30579,-0.18899 0.96231,0.0341 1.45893,0.49584 0.49663,0.4617 1.27081,0.91446 1.72042,1.00613 0.4496,0.0917 1.40368,0.75289 2.12018,1.46939 0.71651,0.71651 2.64832,1.91572 4.29291,2.66492 1.64459,0.7492 3.18973,1.68506 3.43363,2.0797 0.2439,0.39464 -0.77596,0.0954 -2.26634,-0.6649 -3.67948,-1.87714 -4.38354,-1.73034 -1.09626,0.22856 1.46667,0.874 2.96667,1.51964 3.33334,1.43477 0.36666,-0.0849 2.65741,-4.10788 5.09055,-8.94003 z M 152.33334,354 c 0.66366,-0.73333 1.05665,-1.33333 0.87332,-1.33333 -0.18334,0 -0.87633,0.6 -1.53999,1.33333 -0.66366,0.73333 -1.05665,1.33333 -0.87332,1.33333 0.18333,0 0.87633,-0.6 1.53999,-1.33333 z m 1614.33336,1.10333 c 0,-0.12651 -0.675,-0.80151 -1.5,-1.5 l -1.5,-1.27 1.27,1.5 c 1.1935,1.40963 1.73,1.8035 1.73,1.27 z m -1650.33336,-5.77 c -0.22662,-0.36666 -0.76932,-0.66207 -1.20602,-0.65646 -0.47707,0.006 -0.39484,0.26816 0.20602,0.65646 1.28074,0.82769 1.51153,0.82769 1,0 z M 113.66667,348 c -0.22661,-0.36667 -0.76932,-0.66207 -1.20601,-0.65646 -0.47708,0.006 -0.39485,0.26815 0.20601,0.65646 1.28075,0.82769 1.51153,0.82769 1,0 z M 111,346.66667 c -0.22661,-0.36667 -0.76932,-0.66208 -1.20601,-0.65646 -0.47707,0.006 -0.39485,0.26815 0.20601,0.65646 1.28075,0.82768 1.51154,0.82768 1,0 z m 33.33334,-2 c 0.66366,-0.73334 1.05665,-1.33334 0.87332,-1.33334 -0.18334,0 -0.87633,0.6 -1.53999,1.33334 C 143.00301,345.4 142.61002,346 142.79335,346 c 0.18333,0 0.87633,-0.6 1.53999,-1.33333 z m 13.33333,0 c 0.66366,-0.73334 1.05665,-1.33334 0.87332,-1.33334 -0.18333,0 -0.87633,0.6 -1.53999,1.33334 C 156.33634,345.4 155.94335,346 156.12668,346 c 0.18334,0 0.87633,-0.6 1.53999,-1.33333 z M 1760,343.14161 c 0,-0.10546 -1.575,-1.68046 -3.5,-3.5 l -3.5,-3.30828 3.3083,3.5 c 3.0741,3.25226 3.6917,3.80574 3.6917,3.30828 z M 140.33334,338 c 0.66366,-0.73333 1.05665,-1.33333 0.87332,-1.33333 -0.18334,0 -0.87633,0.6 -1.53999,1.33333 -0.66366,0.73333 -1.05665,1.33333 -0.87332,1.33333 0.18333,0 0.87633,-0.6 1.53999,-1.33333 z m 21.33333,0 c 0.66366,-0.73333 1.05665,-1.33333 0.87332,-1.33333 -0.18333,0 -0.87633,0.6 -1.53999,1.33333 -0.66366,0.73333 -1.05665,1.33333 -0.87332,1.33333 0.18334,0 0.87633,-0.6 1.53999,-1.33333 z M 1762.6667,328 c 5.6833,-2.89471 9.9458,-5.27891 9.4721,-5.29823 -0.4736,-0.0193 -1.5052,-0.6351 -2.2924,-1.36844 C 1769.0593,320.6 1768.0218,320 1767.541,320 c -0.4809,0 -0.8743,-0.22783 -0.8743,-0.5063 0,-0.27847 -0.5761,-0.86612 -1.2803,-1.30589 -1.0866,-0.67858 -2.2676,-0.29698 -7.8034,2.52148 -3.5877,1.82659 -6.6865,3.55488 -6.8864,3.84063 -0.1998,0.28575 -1.4755,1.03695 -2.8349,1.66932 -1.3595,0.63237 -2.6252,1.39814 -2.8128,1.70169 -0.5305,0.85836 5.0244,5.34266 6.6178,5.34233 0.3667,-8e-5 5.3167,-2.36855 11,-5.26326 z M 167,328.66667 c 0.66366,-0.73334 1.05666,-1.33334 0.87332,-1.33334 -0.18333,0 -0.87632,0.6 -1.53998,1.33334 C 165.66968,329.4 165.27668,330 165.46002,330 c 0.18333,0 0.87632,-0.6 1.53998,-1.33333 z m -19.12875,-5.68431 c -0.20526,-0.20526 -0.57803,0.16474 -0.82839,0.82222 -0.36178,0.95013 -0.28521,1.02671 0.3732,0.3732 0.45562,-0.45223 0.66045,-0.99016 0.45519,-1.19542 z M 151,319.33333 c 1.43216,-1.46666 2.45394,-2.66666 2.2706,-2.66666 -0.18333,0 -1.5051,1.2 -2.93726,2.66666 C 148.90118,320.8 147.8794,322 148.06274,322 c 0.18333,0 1.5051,-1.2 2.93726,-2.66667 z M 149.02944,318.5 c 3.56366,-3.82409 4.48344,-5.52647 3.44071,-6.36831 -2.09282,-1.6896 -18.73282,-9.50688 -19.56049,-9.18927 -0.51694,0.19837 -1.12602,0.89247 -1.3535,1.54246 -0.22747,0.64998 -1.45511,2.27971 -2.72808,3.62161 -1.27415,1.34315 -2.10651,2.77633 -1.8518,3.18846 0.39664,0.64177 18.03963,9.90562 19.05158,10.00346 0.19866,0.0192 1.54937,-1.24008 3.00158,-2.79841 z m 23.3039,0.83333 C 172.997,318.6 173.38999,318 173.20666,318 c -0.18334,0 -0.87633,0.6 -1.53999,1.33333 -0.66366,0.73334 -1.05665,1.33334 -0.87332,1.33334 0.18333,0 0.87633,-0.6 1.53999,-1.33334 z M 159,316.66667 c 0.66366,-0.73334 1.05666,-1.33334 0.87332,-1.33334 -0.18333,0 -0.87632,0.6 -1.53998,1.33334 C 157.66968,317.4 157.27668,318 157.46002,318 c 0.18333,0 0.87632,-0.6 1.53998,-1.33333 z m -3.66666,-3 c 0.86116,-0.91667 1.28846,-1.65724 0.94954,-1.64572 -0.57004,0.0194 -3.31741,3.31238 -2.76354,3.31238 0.13654,0 0.95283,-0.75 1.814,-1.66666 z m -26.66667,0.76999 c 0,-0.12651 -0.675,-0.80151 -1.5,-1.5 l -1.5,-1.26999 1.26999,1.5 c 1.19348,1.40962 1.73001,1.80349 1.73001,1.26999 z m 47.66667,-1.76999 c 0.66366,-0.73334 1.05665,-1.33334 0.87332,-1.33334 -0.18334,0 -0.87633,0.6 -1.53999,1.33334 C 175.00301,313.4 174.61002,314 174.79335,314 c 0.18333,0 0.87633,-0.6 1.53999,-1.33333 z m -14.78284,-1.96745 c 0.93892,-1.88209 0.90488,-2.0173 -0.7845,-3.11643 -1.64388,-1.06953 -1.7016,-1.07043 -0.83482,-0.013 0.81473,0.9939 0.73136,1.35541 -0.66666,2.8906 -0.87882,0.96504 -1.24358,1.55135 -0.81058,1.30291 0.433,-0.24844 0.9757,-0.14681 1.20601,0.22583 0.61917,1.00185 0.81339,0.86934 1.89055,-1.2899 z M 154,311.76999 c 0,-0.1265 -0.675,-0.8015 -1.5,-1.5 L 151,309 l 1.27,1.5 c 1.19348,1.40963 1.73,1.80349 1.73,1.26999 z m 4.01338,-2.11944 c 0.46381,-0.55886 0.72554,-1.09379 0.58162,-1.18874 -0.14391,-0.095 -1.16166,-0.59976 -2.26166,-1.1218 -1.1,-0.52204 -2.5071,-1.3674 -3.12688,-1.87858 -2.02816,-1.67274 -12.77898,-6.79476 -14.2618,-6.79476 -0.79644,0 -1.7731,0.39165 -2.17038,0.87034 -0.56708,0.68329 0.86516,1.65037 6.6645,4.5 4.06276,1.99631 8.30935,4.30466 9.43688,5.12966 2.39537,1.75266 3.96224,1.90024 5.13772,0.48388 z m 120.81324,-2.5517 c 0.4248,0.26255 0.51785,0.12518 0.23032,-0.34005 -0.56724,-0.91781 -1.74702,-0.36671 -1.67097,0.78055 0.0377,0.56829 0.14861,0.55592 0.39027,-0.0435 0.1857,-0.46062 0.65837,-0.63927 1.05038,-0.39699 z M 1602.6582,292.98297 c -3.662,-7.291 -6.6677,-13.71984 -6.6794,-14.28633 -0.011,-0.56649 -0.4745,-1.62997 -1.0286,-2.36331 -0.8875,-1.17464 -1.9364,-1.35954 -8.8121,-1.55353 -4.2926,-0.12111 -8.4643,0.0298 -9.2704,0.33535 l -1.4657,0.55554 1.8686,3.86602 c 1.8861,3.9025 5.6954,8.46329 7.0688,8.46329 0.4095,0 1.6068,0.9 2.6606,2 1.0539,1.1 2.2539,2 2.6667,2 0.4128,0 1.6128,0.9 2.6667,2 1.0538,1.1 2.2538,2 2.6666,2 0.4128,0 1.6128,0.9 2.6667,2 1.0539,1.1 2.2539,2 2.6667,2 0.4128,0 1.6128,0.9 2.6666,2 1.0539,1.1 2.2635,2 2.6881,2 0.4246,0 1.3166,0.60184 1.9823,1.33742 0.6657,0.73558 1.3084,1.23943 1.4281,1.11967 0.1198,-0.11977 -2.7784,-6.18312 -6.4403,-13.47412 z M 283.66667,303.33333 c 1.43216,-1.46666 2.93692,-2.66666 3.34391,-2.66666 0.40699,0 1.60223,-0.9 2.65609,-2 1.05387,-1.1 2.24911,-2 2.6561,-2 0.40698,0 1.91174,-1.2 3.3439,-2.66667 1.43216,-1.46667 2.93692,-2.66667 3.34391,-2.66667 0.40699,0 1.60223,-0.9 2.65609,-2 1.05387,-1.1 2.2577,-2 2.67519,-2 1.39419,0 3.73978,-3.14815 6.61699,-8.88106 3.34526,-6.6655 3.50008,-6.47932 -5.29218,-6.36429 -9.28467,0.12147 -7.93636,-1.23863 -17.2611,17.41202 -4.53722,9.075 -8.04549,16.5 -7.79616,16.5 0.24933,0 1.6251,-1.2 3.05726,-2.66667 z m -128.33333,1.77 c 0,-0.12651 -0.675,-0.80151 -1.5,-1.5 l -1.5,-1.27 1.26999,1.5 c 1.19348,1.40963 1.73001,1.8035 1.73001,1.27 z m 26.33333,-1.77 C 182.33033,302.6 182.72332,302 182.53999,302 c -0.18333,0 -0.87633,0.6 -1.53999,1.33333 -0.66366,0.73334 -1.05665,1.33334 -0.87332,1.33334 0.18334,0 0.87633,-0.6 1.53999,-1.33334 z M 1640,299.08163 c 0,-0.13844 -0.525,-0.66344 -1.1666,-1.16667 -1.0574,-0.82925 -1.081,-0.80567 -0.2518,0.25171 0.871,1.1105 1.4184,1.46365 1.4184,0.91496 z M 255.66667,297.33333 C 256.33033,296.6 256.72332,296 256.53999,296 c -0.18333,0 -0.87633,0.6 -1.53999,1.33333 -0.66366,0.73334 -1.05665,1.33334 -0.87332,1.33334 0.18334,0 0.87633,-0.6 1.53999,-1.33334 z m -115.67619,-0.94286 c -0.43174,-0.43174 -0.88254,-0.43174 -1.31428,0 -0.43175,0.43175 -0.20636,0.65715 0.65714,0.65715 0.86349,0 1.08888,-0.2254 0.65714,-0.65715 z m 1496.67622,0.73426 c 0,-0.11474 -0.975,-1.08974 -2.1667,-2.16667 L 1632.3334,293 l 1.958,2.16667 c 1.8252,2.01964 2.3753,2.4731 2.3753,1.95806 z m -1376.29142,-3.2914 1.95806,-2.16666 -2.16667,1.95806 c -2.01964,1.82518 -2.4731,2.37527 -1.95806,2.37527 0.11473,0 1.08973,-0.975 2.16667,-2.16667 z M 187,294 c 0.66366,-0.73333 1.05666,-1.33333 0.87332,-1.33333 -0.18333,0 -0.87632,0.6 -1.53998,1.33333 -0.66366,0.73333 -1.05666,1.33333 -0.87332,1.33333 0.18333,0 0.87632,-0.6 1.53998,-1.33333 z m 1444.3334,-0.87527 c 0,-0.11474 -0.975,-1.08974 -2.1667,-2.16667 L 1627,289 l 1.9581,2.16667 c 1.8252,2.01964 2.3753,2.4731 2.3753,1.95806 z M 265,290.66667 c 0.66366,-0.73334 1.05666,-1.33334 0.87332,-1.33334 -0.18333,0 -0.87632,0.6 -1.53998,1.33334 C 263.66968,291.4 263.27668,292 263.46002,292 c 0.18333,0 0.87632,-0.6 1.53998,-1.33333 z M 269,288 c 0.66366,-0.73333 1.05666,-1.33333 0.87332,-1.33333 -0.18333,0 -0.87632,0.6 -1.53998,1.33333 -0.66366,0.73333 -1.05666,1.33333 -0.87332,1.33333 0.18333,0 0.87632,-0.6 1.53998,-1.33333 z m 1357,1.12473 c 0,-0.11474 -0.975,-1.08974 -2.1666,-2.16667 L 1621.6667,285 l 1.9581,2.16667 c 1.8252,2.01964 2.3752,2.4731 2.3752,1.95806 z M 191,287.33333 C 191.66366,286.6 192.05666,286 191.87332,286 c -0.18333,0 -0.87632,0.6 -1.53998,1.33333 -0.66366,0.73334 -1.05666,1.33334 -0.87332,1.33334 0.18333,0 0.87632,-0.6 1.53998,-1.33334 z m 82,-2 C 273.66366,284.6 274.05666,284 273.87332,284 c -0.18333,0 -0.87632,0.6 -1.53998,1.33333 -0.66366,0.73334 -1.05666,1.33334 -0.87332,1.33334 0.18333,0 0.87632,-0.6 1.53998,-1.33334 z m 1347.6667,-0.23 c 0,-0.12651 -0.675,-0.80151 -1.5,-1.5 l -1.5,-1.27 1.27,1.5 c 1.1935,1.40963 1.73,1.8035 1.73,1.27 z m -1342.95809,-3.27 1.95806,-2.16666 -2.16667,1.95806 C 275.48036,283.44991 275.0269,284 275.54194,284 c 0.11474,0 1.08974,-0.975 2.16667,-2.16667 z m 1338.95809,0.62473 c 0,-0.11473 -0.975,-1.08973 -2.1667,-2.16667 l -2.1666,-1.95806 1.958,2.16667 c 1.8252,2.01964 2.3753,2.4731 2.3753,1.95806 z M 282.33334,278.66667 c 0.66366,-0.73334 1.05665,-1.33334 0.87332,-1.33334 -0.18334,0 -0.87633,0.6 -1.53999,1.33334 C 281.00301,279.4 280.61002,280 280.79335,280 c 0.18333,0 0.87633,-0.6 1.53999,-1.33333 z m -86,-0.66667 c 0.66366,-0.73333 1.05665,-1.33333 0.87332,-1.33333 -0.18334,0 -0.87633,0.6 -1.53999,1.33333 -0.66366,0.73333 -1.05665,1.33333 -0.87332,1.33333 0.18333,0 0.87633,-0.6 1.53999,-1.33333 z m 1413.45806,-1.20315 c -2.1784,-2.27382 -2.2124,-2.62302 -0.2914,-2.99303 1.146,-0.22072 1.0148,-0.31034 -0.5555,-0.3797 -3.0216,-0.13345 -3.0932,0.41789 -0.3818,2.93963 2.9562,2.74942 3.6986,3.0111 1.2287,0.4331 z m 61.414,-0.0874 c -0.7586,-1.21464 -3.1568,-2.31356 -3.7514,-1.71895 -0.2234,0.22329 3.8243,2.99888 4.385,3.00699 0.095,10e-4 -0.1904,-0.57824 -0.6336,-1.28804 z M 286.33334,276 c 0.66366,-0.73333 1.05665,-1.33333 0.87332,-1.33333 -0.18333,0 -0.87633,0.6 -1.53999,1.33333 -0.66366,0.73333 -1.05665,1.33333 -0.87332,1.33333 0.18334,0 0.87633,-0.6 1.53999,-1.33333 z m 4.11209,-4.28164 c -0.22197,-0.57843 -1.08799,-1.01084 -1.9245,-0.96091 l -1.52092,0.0908 1.5,0.28891 c 1.59279,0.30679 1.93022,1.40985 0.83571,2.7319 -0.36535,0.44131 -0.17433,0.37457 0.4245,-0.14831 0.60098,-0.52476 0.90797,-1.42187 0.68521,-2.00238 z m 1305.06727,1.84435 c -0.4513,-0.18262 -1.3513,-0.19373 -2,-0.0247 -0.6486,0.16903 -0.2793,0.31844 0.8207,0.33203 1.1,0.0136 1.6307,-0.12471 1.1793,-0.30733 z m 98.3919,-0.82292 c 0.6305,-0.39953 0.681,-0.71125 0.1666,-1.02914 -0.4058,-0.2508 -0.7378,-0.15916 -0.7378,0.20364 0,0.3628 -0.675,0.78965 -1.5,0.94856 -1.2938,0.24918 -1.3167,0.29999 -0.1667,0.36949 0.7333,0.0443 1.7403,-0.17733 2.2379,-0.49255 z m -1395.90459,-1.58512 1.66666,-0.30643 -1.7517,-0.0908 c -0.96556,-0.0501 -2.16233,0.4328 -2.66667,1.07588 -0.79607,1.01507 -0.78501,1.06668 0.085,0.39722 0.55,-0.4232 1.75,-0.90735 2.66667,-1.07588 z m -83.16667,-0.95849 c -1.70426,-0.32825 -1.86178,-0.85087 -0.66667,-2.21183 0.45833,-0.52193 0.15124,-0.37902 -0.68242,0.31759 -1.66304,1.38963 -0.97689,2.41437 1.51575,2.26373 1.14998,-0.0695 1.12706,-0.12031 -0.16666,-0.36949 z m -13.16667,-1.52951 c 0.66366,-0.73334 1.05665,-1.33334 0.87332,-1.33334 -0.18333,0 -0.87633,0.6 -1.53999,1.33334 C 200.33634,269.4 199.94335,270 200.12668,270 c 0.18334,0 0.87633,-0.6 1.53999,-1.33333 z m 4,-6.66667 c 0.66366,-0.73333 1.05665,-1.33333 0.87332,-1.33333 -0.18333,0 -0.87633,0.6 -1.53999,1.33333 -0.66366,0.73333 -1.05665,1.33333 -0.87332,1.33333 0.18334,0 0.87633,-0.6 1.53999,-1.33333 z m 12,0 c 0.66366,-0.73333 1.05665,-1.33333 0.87332,-1.33333 -0.18333,0 -0.87633,0.6 -1.53999,1.33333 -0.66366,0.73333 -1.05665,1.33333 -0.87332,1.33333 0.18334,0 0.87633,-0.6 1.53999,-1.33333 z M 211,252.66667 c 0.66366,-0.73334 1.05666,-1.33334 0.87332,-1.33334 -0.18333,0 -0.87632,0.6 -1.53998,1.33334 C 209.66968,253.4 209.27668,254 209.46002,254 c 0.18333,0 0.87632,-0.6 1.53998,-1.33333 z m 12,0 c 0.66366,-0.73334 1.05666,-1.33334 0.87332,-1.33334 -0.18333,0 -0.87632,0.6 -1.53998,1.33334 C 221.66968,253.4 221.27668,254 221.46002,254 c 0.18333,0 0.87632,-0.6 1.53998,-1.33333 z m -6.66666,-9.33334 C 216.997,242.6 217.38999,242 217.20666,242 c -0.18334,0 -0.87633,0.6 -1.53999,1.33333 -0.66366,0.73334 -1.05665,1.33334 -0.87332,1.33334 0.18333,0 0.87633,-0.6 1.53999,-1.33334 z m 12,0 C 228.997,242.6 229.38999,242 229.20666,242 c -0.18334,0 -0.87633,0.6 -1.53999,1.33333 -0.66366,0.73334 -1.05665,1.33334 -0.87332,1.33334 0.18333,0 0.87633,-0.6 1.53999,-1.33334 z m -8,-6.66666 c 0.66366,-0.73334 1.05665,-1.33334 0.87332,-1.33334 -0.18334,0 -0.87633,0.6 -1.53999,1.33334 C 219.00301,237.4 218.61002,238 218.79335,238 c 0.18333,0 0.87633,-0.6 1.53999,-1.33333 z m 12,0 c 0.66366,-0.73334 1.05665,-1.33334 0.87332,-1.33334 -0.18334,0 -0.87633,0.6 -1.53999,1.33334 C 231.00301,237.4 230.61002,238 230.79335,238 c 0.18333,0 0.87633,-0.6 1.53999,-1.33333 z m -6.66667,-9.33334 C 226.33033,226.6 226.72332,226 226.53999,226 c -0.18333,0 -0.87633,0.6 -1.53999,1.33333 -0.66366,0.73334 -1.05665,1.33334 -0.87332,1.33334 0.18334,0 0.87633,-0.6 1.53999,-1.33334 z m 12,0 C 238.33033,226.6 238.72332,226 238.53999,226 c -0.18333,0 -0.87633,0.6 -1.53999,1.33333 -0.66366,0.73334 -1.05665,1.33334 -0.87332,1.33334 0.18334,0 0.87633,-0.6 1.53999,-1.33334 z m 4,-6.66666 c 0.66366,-0.73334 1.05665,-1.33334 0.87332,-1.33334 -0.18333,0 -0.87633,0.6 -1.53999,1.33334 C 240.33634,221.4 239.94335,222 240.12668,222 c 0.18334,0 0.87633,-0.6 1.53999,-1.33333 z m 1427.66673,1.10332 c 0,-0.1265 -0.675,-0.8015 -1.5,-1.5 l -1.5,-1.26999 1.27,1.5 c 1.1934,1.40963 1.73,1.80349 1.73,1.26999 z M 231,218 c 0.66366,-0.73333 1.05666,-1.33333 0.87332,-1.33333 -0.18333,0 -0.87632,0.6 -1.53998,1.33333 -0.66366,0.73333 -1.05666,1.33333 -0.87332,1.33333 0.18333,0 0.87632,-0.6 1.53998,-1.33333 z m 4,-6.66667 C 235.66366,210.6 236.05666,210 235.87332,210 c -0.18333,0 -0.87632,0.6 -1.53998,1.33333 -0.66366,0.73334 -1.05666,1.33334 -0.87332,1.33334 0.18333,0 0.87632,-0.6 1.53998,-1.33334 z m 12,0 C 247.66366,210.6 248.05666,210 247.87332,210 c -0.18333,0 -0.87632,0.6 -1.53998,1.33333 -0.66366,0.73334 -1.05666,1.33334 -0.87332,1.33334 0.18333,0 0.87632,-0.6 1.53998,-1.33334 z M 116.66667,208 c 0,-0.36667 -0.3,-0.66667 -0.66667,-0.66667 -0.36666,0 -0.66666,0.3 -0.66666,0.66667 0,0.36667 0.3,0.66667 0.66666,0.66667 0.36667,0 0.66667,-0.3 0.66667,-0.66667 z M 251,204.66667 c 0.66366,-0.73334 1.05666,-1.33334 0.87332,-1.33334 -0.18333,0 -0.87632,0.6 -1.53998,1.33334 C 249.66968,205.4 249.27668,206 249.46002,206 c 0.18333,0 0.87632,-0.6 1.53998,-1.33333 z M 240.33334,202 c 0.66366,-0.73333 1.05665,-1.33333 0.87332,-1.33333 -0.18334,0 -0.87633,0.6 -1.53999,1.33333 -0.66366,0.73333 -1.05665,1.33333 -0.87332,1.33333 0.18333,0 0.87633,-0.6 1.53999,-1.33333 z m 16,-6.66667 C 256.997,194.6 257.38999,194 257.20666,194 c -0.18334,0 -0.87633,0.6 -1.53999,1.33333 -0.66366,0.73334 -1.05665,1.33334 -0.87332,1.33334 0.18333,0 0.87633,-0.6 1.53999,-1.33334 z m -10.66667,-2.66666 c 0.66366,-0.73334 1.05665,-1.33334 0.87332,-1.33334 -0.18333,0 -0.87633,0.6 -1.53999,1.33334 C 244.33634,193.4 243.94335,194 244.12668,194 c 0.18334,0 0.87633,-0.6 1.53999,-1.33333 z m 1408.52653,0 c -0.2729,-1.04359 -0.01,-1.35014 1.2291,-1.41067 1.2408,-0.0608 1.3135,-0.14535 0.3403,-0.39585 -1.5546,-0.40014 -2.7332,0.71953 -2.2054,2.09504 0.5766,1.50258 1.0484,1.28854 0.636,-0.28852 z M 257.73134,191.19623 c -0.60861,-0.3406 -1.62214,-0.48388 -2.25228,-0.31841 -0.83678,0.21972 -0.74124,0.3217 0.35428,0.37818 0.825,0.0425 1.5,0.39504 1.5,0.78335 0,0.3883 0.33852,0.49678 0.75228,0.24107 0.51244,-0.3167 0.39948,-0.66236 -0.35428,-1.08419 z m 1409.60206,0.47044 c -0.4565,-0.55 -1.6182,-0.95915 -2.5816,-0.90922 l -1.7518,0.0908 1.6667,0.299 c 0.9167,0.16445 1.9517,0.57359 2.3,0.90921 1.0152,0.97814 1.2738,0.70324 0.3667,-0.38978 z M 249.5,190.89181 c -0.45833,-0.18494 -1.20833,-0.18494 -1.66666,0 -0.45834,0.18494 -0.0833,0.33626 0.83333,0.33626 0.91667,0 1.29167,-0.15132 0.83333,-0.33626 z M 407.00001,146.5422 c 433.84987,-0.79604 521.66667,-1.11241 521.66667,-1.87936 0,-0.86595 3.1318,-0.86165 3.6674,0.005 0.5676,0.9184 359.43622,0.90989 360.00382,-0.009 0.2673,-0.43254 86.1015,-0.68593 249.5348,-0.73667 137.0201,-0.0425 248.5273,-0.20868 247.794,-0.36922 -0.7333,-0.16054 -2.5333,-0.84098 -4,-1.5121 -3.5987,-1.64666 -7.0949,-2.52078 -12.6667,-3.16687 -3.9358,-0.45639 -4.6978,-0.74995 -4.8658,-1.87447 -0.188,-1.25847 -5.3683,-4.33334 -7.3005,-4.33334 -0.4362,0 -1.8613,-0.6 -3.167,-1.33333 -1.3057,-0.73333 -2.9471,-1.33333 -3.6476,-1.33333 -0.7005,0 -1.4591,-0.3 -1.6857,-0.66667 -0.2266,-0.36667 -0.9852,-0.66667 -1.6858,-0.66667 -0.7005,0 -2.3419,-0.6 -3.6476,-1.33333 -1.3056,-0.73333 -2.947,-1.33333 -3.6476,-1.33333 -0.7005,0 -1.4591,-0.3 -1.6857,-0.66667 -0.2266,-0.36667 -0.9852,-0.66667 -1.6857,-0.66667 -0.7006,0 -2.342,-0.6 -3.6476,-1.33333 -1.3057,-0.73333 -2.9471,-1.33333 -3.6476,-1.33333 -0.7006,0 -1.4592,-0.3 -1.6858,-0.66667 -0.2266,-0.36667 -0.9852,-0.66667 -1.6857,-0.66667 -0.7005,0 -2.3419,-0.6 -3.6476,-1.33333 -1.3057,-0.73333 -2.9471,-1.33333 -3.6476,-1.33333 -0.7005,0 -1.4591,-0.3 -1.6857,-0.66667 -0.2266,-0.36667 -0.9238,-0.66667 -1.5493,-0.66667 -0.6255,0 -3.0828,-0.975 -5.4607,-2.16666 L 1709,112.33364 1511.0617,112.16148 c -128.2672,-0.11156 -198.2159,-0.40253 -198.7269,-0.82665 -0.9152,-0.7595 -1118.30085,-0.85828 -1133.3348,-0.1002 l -9.33333,0.47062 -7.15557,3.52656 c -3.93556,1.93962 -7.31823,3.78976 -7.51704,4.11145 -0.19881,0.32168 -2.89614,1.81735 -5.99406,3.32371 -3.09792,1.50636 -5.79608,3.00339 -5.99591,3.32673 -0.19984,0.32334 -2.08251,1.40853 -4.18371,2.41153 -2.10121,1.003 -4.32747,2.2525 -4.94726,2.77668 C 132.53176,132.31604 121.33095,138 120.4368,138 c -0.34243,0 -4.25579,1.77448 -8.69636,3.94329 -4.44058,2.16881 -8.75312,4.14041 -9.58345,4.38133 -0.83033,0.24092 -1.32019,0.74463 -1.0886,1.11936 0.27355,0.44263 2.20385,0.49893 5.50968,0.16071 2.79873,-0.28633 137.9886,-0.76445 300.42194,-1.06249 z M 1294,146 c 0.55,-0.35544 0.7,-0.64625 0.3334,-0.64625 -0.3667,0 -1.1167,0.29081 -1.6667,0.64625 -0.55,0.35544 -0.7,0.64625 -0.3333,0.64625 0.3666,0 1.1166,-0.29081 1.6666,-0.64625 z m 500.4862,-1.73611 c -0.2216,-0.22153 -0.7966,-0.24521 -1.2778,-0.0526 -0.5318,0.21281 -0.3739,0.37078 0.4028,0.40277 0.7027,0.0289 1.0965,-0.12862 0.875,-0.35015 z M 1314,110 c -0.55,-0.35544 -1.3,-0.64625 -1.6666,-0.64625 -0.3667,0 -0.2167,0.29081 0.3333,0.64625 0.55,0.35544 1.3,0.64625 1.6667,0.64625 0.3666,0 0.2166,-0.29081 -0.3334,-0.64625 z m 396.4088,-2.28567 c 0.6694,-1.43752 0.5714,-1.62918 -1,-1.95522 -2.7122,-0.56273 -1526.5674,-0.15606 -1527.13102,0.40756 -0.275,0.275 -0.275,0.725 0,1 0.275,0.275 254.93325,0.57324 565.90723,0.66276 380.43669,0.10953 565.62799,0.38357 566.08219,0.83768 0.4524,0.45247 65.7224,0.66932 198.0372,0.65794 l 197.3623,-0.0169 0.7421,-1.59376 z m -5.256,-4.78378 c -0.2215,-0.22152 -0.7965,-0.2452 -1.2778,-0.0526 -0.5318,0.21282 -0.3738,0.37079 0.4028,0.40278 0.7028,0.0289 1.0966,-0.12862 0.875,-0.35015 z m -5.0133,-0.73948 c -0.84,-0.16002 -3.1955,-1.16847 -5.2344,-2.241003 C 1692.8662,98.877527 1690.7876,98 1690.286,98 c -0.5017,0 -1.9803,-0.6 -3.286,-1.333333 -1.3056,-0.733334 -2.8056,-1.333334 -3.3333,-1.333334 -0.5277,0 -2.0277,-0.6 -3.3333,-1.333333 -1.3057,-0.733333 -2.8057,-1.333333 -3.3334,-1.333333 -0.5276,0 -2.0276,-0.6 -3.3333,-1.333334 C 1672.361,90.6 1670.861,90 1670.3334,90 c -0.5277,0 -2.0277,-0.6 -3.3334,-1.333333 -1.3056,-0.733334 -2.7842,-1.333334 -3.2859,-1.333334 -0.5016,0 -2.6229,-0.9 -4.7141,-2 -2.0911,-1.1 -4.2124,-2 -4.714,-2 -0.5017,0 -1.9803,-0.6 -3.286,-1.333333 -1.3056,-0.733333 -2.8188,-1.333333 -3.3626,-1.333333 -0.5438,0 -1.5097,-0.259787 -2.1464,-0.577307 -0.6367,-0.317513 -2.2076,-0.98742 -3.491,-1.48868 -1.9666,-0.768127 -106.8077,-0.939867 -666.99998,-1.092587 C 609.43334,77.408433 296.68334,77.55836 280,77.8412 c -26.18684,0.444 -30.65229,0.665827 -32.66666,1.622753 -1.28334,0.609647 -5.18334,2.060234 -8.66667,3.22352 -3.48333,1.163294 -6.61833,2.3845 -6.96667,2.7138 C 231.35167,85.730573 230.6734,86 230.19274,86 c -0.48066,0 -2.14566,0.57492 -3.7,1.2776 -1.55434,0.702687 -4.77607,1.93762 -7.1594,2.744313 -2.38334,0.806687 -4.61834,1.731767 -4.96667,2.055727 -0.34833,0.323967 -1.03783,0.589027 -1.53221,0.589027 -0.49437,0 -2.14072,0.6 -3.65855,1.333333 -1.51782,0.733333 -3.02223,1.333333 -3.34313,1.333333 -0.3209,0 -2.43956,0.881587 -4.70812,1.959074 -2.26856,1.077493 -5.70422,2.46352 -7.63478,3.080053 -1.93058,0.61653 -3.67331,1.385 -3.87275,1.7077 -0.20875,0.33775 320.53245,0.54751 755.84349,0.49429 415.91338,-0.0509 755.51878,-0.22336 754.67888,-0.38338 z M 1596.6667,73.999893 c 0,-0.433713 -222.0683,-0.660386 -649.66668,-0.663146 -433.24044,-0.0027 -649.66668,0.218193 -649.66668,0.66336 0,0.44516 216.4261,0.66608 649.66668,0.663146 427.59818,-0.0027 649.66668,-0.229646 649.66668,-0.66336 z m -5,-3.81056 c -0.7333,-0.175313 -1.6183,-0.589633 -1.9667,-0.920706 -0.3483,-0.33108 -1.3056,-0.60196 -2.1273,-0.60196 -0.8217,0 -1.6794,-0.3 -1.906,-0.666667 -0.2266,-0.366667 -0.9852,-0.666667 -1.6857,-0.666667 -0.7006,0 -2.342,-0.6 -3.6476,-1.333333 -1.3057,-0.733333 -2.9471,-1.333333 -3.6476,-1.333333 -0.7006,0 -1.4592,-0.3 -1.6858,-0.666667 -0.2266,-0.366667 -1.1266,-0.666667 -2,-0.666667 -0.8734,0 -1.7734,-0.3 -2,-0.666666 C 1570.7734,62.3 1570.0148,62 1569.3143,62 c -0.7005,0 -2.3419,-0.6 -3.6476,-1.333333 -1.3057,-0.733334 -2.8189,-1.333334 -3.3627,-1.333334 -0.5438,0 -1.5096,-0.297571 -2.1464,-0.66127 -0.6366,-0.363698 -6.2576,-0.888698 -12.4909,-1.166666 L 1536.3334,57 v -1.666667 c 0,-1.587301 0.2222,-1.68254 4.6666,-2 28.8523,-2.060878 -97.8432,-2.609843 -693.86365,-3.006473 -492.94718,-0.328038 -493.86884,-0.326172 -496.62525,1.005579 -1.51884,0.733825 -3.14606,1.334228 -3.61603,1.334228 -0.46998,0 -1.92276,0.6 -3.2284,1.333333 -1.30564,0.733333 -2.94706,1.333333 -3.6476,1.333333 -0.70054,0 -1.45912,0.3 -1.68573,0.666667 -0.22661,0.366667 -0.98519,0.666667 -1.68573,0.666667 -0.70054,0 -2.34196,0.6 -3.6476,1.333333 -1.30564,0.733333 -2.94706,1.333333 -3.6476,1.333333 -0.70054,0 -1.45912,0.3 -1.68574,0.666667 -0.22661,0.366667 -0.98519,0.666667 -1.68573,0.666667 -0.70054,0 -2.34196,0.6 -3.6476,1.333333 -1.30564,0.733333 -2.76867,1.333333 -3.25119,1.333333 -1.50962,0 -5.05994,2.046161 -5.73325,3.304261 -0.47098,0.880039 -1.80113,1.326899 -4.95509,1.664659 -2.40947,0.258034 -4.65972,0.881547 -5.10118,1.41346 -0.68424,0.82446 85.51007,0.9411 644.45879,0.872067 354.88678,-0.0438 644.64858,-0.223133 643.91528,-0.398447 z m -1280.33336,-4.856 c 0,-0.366666 -0.28229,-0.666666 -0.62732,-0.666666 -0.34503,0 -0.81273,0.3 -1.03935,0.666666 C 309.44006,65.7 309.72234,66 310.29399,66 c 0.57164,0 1.03935,-0.3 1.03935,-0.666667 z m 1239.33336,-10 c -2.4655,-0.789588 -12,-0.789588 -12,0 0,0.405406 2.6779,0.640624 6.8333,0.600214 4.4508,-0.04328 6.2522,-0.252561 5.1667,-0.600214 z m -1.5139,-1.736111 c -0.2215,-0.221527 -0.7965,-0.245212 -1.2778,-0.05263 -0.5318,0.212817 -0.3738,0.370788 0.4028,0.402778 0.7028,0.02895 1.0966,-0.128619 0.875,-0.350148 z"
       id="path149" />
  </g>
</svg>
